<?xml version="1.0" encoding="utf-8"?>
<!-- Generator: Adobe Illustrator 18.0.0, SVG Export Plug-In . SVG Version: 6.00 Build 0)  -->
<!DOCTYPE svg PUBLIC "-//W3C//DTD SVG 1.1//EN" "http://www.w3.org/Graphics/SVG/1.1/DTD/svg11.dtd">
<svg version="1.1" id="Layer_1" xmlns="http://www.w3.org/2000/svg" xmlns:xlink="http://www.w3.org/1999/xlink" x="0px" y="0px"
	 viewBox="0 0 115.5 130" enable-background="new 0 0 115.5 130" xml:space="preserve">
<g id="bGuk42.tif">
	<g>
		<path fill="#F2DF61" d="M1064.1,417.7c0-43.3,0-86.7,0-130c43,0,86.1,0,129.1,0c1,0,0.9-0.1,0.9,0.9c0,42.7,0,85.5,0,128.2
			c0,0.2,0,0.3,0,0.5c0,0.3-0.1,0.4-0.4,0.4c-0.2,0-0.5,0-0.7,0c-42.7,0-85.3,0-128,0C1064.7,417.6,1064.4,417.7,1064.1,417.7z
			 M1163.6,407.3c3,0,5.9-0.4,8.8-1.3c4-1.4,7.3-3.6,9.5-7.4c1.7-3,2.2-6.4,2-9.8c-0.3-4.9-2.2-8.9-6.1-12c-2.6-2.1-5.4-3.6-8.4-4.9
			c-2.5-1.1-5.1-2.1-7.6-3.4c-1.2-0.6-2.3-1.3-3.2-2.2c-2.1-2.1-2.3-7.2,2-8.7c2.9-1,5.7-0.5,8,1.7c0.9,0.8,1.5,1.7,2.1,2.7
			c0.2,0.3,0.3,0.3,0.6,0.1c2.9-1.9,5.9-3.8,8.8-5.6c0.2-0.1,0.3-0.3,0.2-0.5c-1.9-3.2-4.3-5.9-7.7-7.5c-4.7-2.2-9.7-2.4-14.7-1.3
			c-7.7,1.7-12.5,7.8-12.6,15.4c-0.1,6.3,2.5,11.3,7.7,14.8c2,1.4,4.2,2.5,6.5,3.5c2.5,1.1,5.1,2.1,7.5,3.3c1.2,0.6,2.4,1.3,3.3,2.3
			c1.4,1.5,1.9,3.3,1.4,5.2c-0.5,2.1-1.9,3.3-3.8,4c-4.5,1.5-8.7,1-12.5-2c-1.4-1.1-2.6-2.6-3.5-4.1c-0.3-0.4-0.4-0.5-0.9-0.2
			c-2.9,1.7-5.9,3.4-8.9,5.1c-0.4,0.2-0.5,0.4-0.3,0.8c1.8,3.3,4.2,6,7.4,8C1153.5,406.3,1158.4,407.3,1163.6,407.3z M1134.7,369.4
			C1134.7,369.4,1134.7,369.4,1134.7,369.4c0-7.1,0-14.2,0-21.3c0-0.9,0.1-0.8-0.8-0.8c-3.5,0-7.1,0-10.6,0c-0.6,0-0.8,0.1-0.8,0.8
			c0,13.4,0,26.9,0,40.3c0,1.1,0,2.1-0.2,3.2c-0.3,1.8-1,3.4-2.7,4.2c-2.3,1.1-6.4,1.3-8.9-1.7c-0.9-1.1-1.6-2.2-2.3-3.4
			c-0.2-0.3-0.3-0.4-0.6-0.2c-3,1.8-6.1,3.7-9.1,5.5c-0.3,0.2-0.4,0.4-0.2,0.7c2.2,4.3,5.4,7.6,10,9.3c5.4,2,10.8,2,16.2,0.1
			c3.9-1.4,6.7-4.1,8.4-7.9c1.1-2.6,1.7-5.4,1.7-8.2C1134.7,383,1134.7,376.2,1134.7,369.4z"/>
		<path fill="#41423F" d="M1163.6,407.3c-5.2,0-10.1-1.1-14.5-3.9c-3.2-2-5.6-4.7-7.4-8c-0.2-0.4-0.2-0.6,0.3-0.8
			c3-1.7,5.9-3.4,8.9-5.1c0.5-0.3,0.6-0.2,0.9,0.2c1,1.5,2.1,3,3.5,4.1c3.8,3,8,3.5,12.5,2c1.9-0.6,3.3-1.9,3.8-4
			c0.4-2,0-3.8-1.4-5.2c-0.9-1-2.1-1.6-3.3-2.3c-2.4-1.2-5-2.2-7.5-3.3c-2.2-1-4.4-2.1-6.5-3.5c-5.3-3.5-7.8-8.5-7.7-14.8
			c0.1-7.7,4.9-13.7,12.6-15.4c5-1.1,10-0.9,14.7,1.3c3.4,1.6,5.8,4.3,7.7,7.5c0.2,0.3,0.1,0.4-0.2,0.5c-2.9,1.9-5.9,3.8-8.8,5.6
			c-0.3,0.2-0.4,0.2-0.6-0.1c-0.6-1-1.2-2-2.1-2.7c-2.3-2.1-5.1-2.7-8-1.7c-4.2,1.4-4.1,6.6-2,8.7c0.9,0.9,2.1,1.6,3.2,2.2
			c2.5,1.2,5.1,2.2,7.6,3.4c3,1.4,5.8,2.9,8.4,4.9c3.8,3.1,5.8,7.1,6.1,12c0.2,3.4-0.3,6.7-2,9.8c-2.1,3.8-5.5,6-9.5,7.4
			C1169.5,407,1166.5,407.3,1163.6,407.3z"/>
		<path fill="#41423F" d="M1134.7,369.4c0,6.8,0,13.7,0,20.5c0,2.8-0.5,5.6-1.7,8.2c-1.7,3.8-4.5,6.5-8.4,7.9
			c-5.4,1.9-10.8,1.9-16.2-0.1c-4.6-1.7-7.8-5-10-9.3c-0.2-0.4-0.1-0.5,0.2-0.7c3-1.8,6.1-3.7,9.1-5.5c0.3-0.2,0.5-0.2,0.6,0.2
			c0.7,1.2,1.4,2.4,2.3,3.4c2.5,3,6.6,2.8,8.9,1.7c1.7-0.8,2.4-2.4,2.7-4.2c0.2-1.1,0.2-2.1,0.2-3.2c0-13.4,0-26.9,0-40.3
			c0-0.6,0.2-0.8,0.8-0.8c3.5,0,7.1,0,10.6,0c0.9,0,0.8-0.1,0.8,0.8C1134.7,355.2,1134.7,362.3,1134.7,369.4
			C1134.7,369.4,1134.7,369.4,1134.7,369.4z"/>
	</g>
</g>
<g id="ESWwht.tif">
	<g>
		<g>
			<path fill="#E77DEF" d="M857.5,287.7c3.2,0.7,6.5,1.2,9.7,2.1c5.5,1.6,10.4,4.3,13.4,9.5c3.7,6.3,3.2,12.9,0.7,19.4
				c-5,12.6-14.3,20.7-27,25.2c-8.7,3.1-17.6,4.4-26.7,3.1c-4.6-0.6-8.6-2.6-11.6-6.1c-0.9-1.1-1.5-2.5-2.1-3.9
				c-0.1-0.3,0.2-1,0.5-1.3c0.2-0.2,0.9,0,1.2,0.3c6,6.2,13.5,6.2,21.2,4.9c11.7-1.9,21.9-6.8,30-15.7c3.2-3.5,5.8-7.5,6.7-12.3
				c1.2-6.7-1.4-10.9-7.9-13.1c-7-2.3-14-2.1-21.1-0.7c-17.7,3.5-33.1,11.6-46.7,23.3c-2.7,2.3-5.2,5.2-7.1,8.2
				c-6,9.2-4.7,18.1,3.6,25.6c4,3.7,8.5,6.9,12.7,10.4c2.5,2.1,4.9,4.2,7.5,6.4c5.5-3,11-6,16.6-9.1c0.5-0.3,0.8-0.8,1.2-1.3
				c2.8-3.4,6-6.3,10-8.1c2.6-1.2,5.4-2,7.9-0.1c2.4,1.8,2.3,4.6,2.3,7.2c0,0.7-0.1,1.5-0.2,2.4c0.6-0.2,1-0.4,1.4-0.4
				c3-0.7,4.8,1.2,4.1,4.1c-1.3,5.4-2.7,10.7-4,16.1c-0.4,1.5-0.2,3.1-0.4,4.7c0.2,0.1,0.4,0.1,0.7,0.2c0.7-1.3,1.5-2.6,2.1-3.9
				c4.6-10.2,9.2-20.5,13.7-30.7c0.5-1,0.7-2.2,1-3.3c0.2-0.6,0.2-1.2,0.5-1.7c1-1.9,2.9-1.8,4.6-1.9c2-0.2,4.3-0.8,5.9,1.1
				c0.4,0.5,0.1,1.8-0.2,2.6c-1.5,4-2,8.1-1,12.3c0.4,1.9,1.3,3.6,1.9,5.5c0.2,0,0.4,0,0.6,0.1c2.5-4.5,5.1-8.8,7.3-13.4
				c1.6-3.4,2.7-7,4-10.6c0.4-1.3,1.1-2.2,2.5-2.3c2.3-0.2,4.6-0.4,6.8-0.2c1.6,0.1,2.2,1.1,1.6,2.8c-1.4,3.8-2.6,7.8-1.5,11.9
				c0.8,3.1,2.1,6,3,8.7c4.4-1.1,8.2-2.4,12.1-2.9c7.2-1,14.2,0,20.3,4.3c5,3.6,8.1,8.3,7.9,14.7c-0.1,4.4-3.4,9-7.6,10.3
				c-0.6,0.2-1.3-0.1-2-0.2c0.4-0.5,0.6-1.2,1.1-1.5c6.1-4.4,6.6-10.5,1.2-16c-2.7-2.7-6-4.3-9.7-5.1c-6.9-1.6-13.8-1.5-20.7,1.1
				c0.3,1.2,0.7,2.2,0.9,3.3c1,4.2,0.1,7.9-2.9,11c-3.1,3.2-6.8,5.3-11.1,6.5c-4,1.1-6.4-1.1-6-5.2c0.6-5.7,4-9.8,7.8-13.6
				c0.7-0.7,1.4-1.3,1.9-1.7c-1.6-4.5-3.1-8.9-4.6-13.3c-1.5,2.7-3.1,5.5-4.7,8.3c-0.4,0.6-0.7,1.3-1.1,1.9
				c-2.9,3.8-4.5,7.4-2.7,12.6c1.7,5-0.7,9.6-5.1,12.6c-4,2.8-8.5,4.4-13.5,4.2c-3.3-0.2-4.7-2.6-2.6-5.3c3-4,6.2-7.9,9.5-11.6
				c2-2.3,2.2-4.2,0.8-6.9c-1.7-3.3-2.6-6.9-3.9-10.5c-1.4,3.1-2.6,6.4-4.1,9.5c-3.5,7.2-7.1,14.3-10.9,21.3c-1,1.9-2.6,3.6-4.3,5
				c-2.5,2.1-5.7,1-6.5-2.2c-0.7-3-0.8-6.2-1.1-8.8c-1.4,2.8-3,6.3-4.8,9.8c-1.3,2.5-3.1,4.6-6.4,4.5c-2.1-0.1-3.8-0.8-5-2.6
				c-3.8-5.8-4.8-12.1-3.8-18.8c0.4-2.5,1-5,1.6-8c-3.2,1.8-6.2,3.5-9,5.2c0.6,2.6,1.3,5,1.6,7.5c1.8,13.9-5.7,26.2-18.8,31.1
				c-4.8,1.8-9.6,2-14.6,0.7c-3.4-0.9-6.3-5.3-6.5-9.9c-0.3-5.8,1.7-10.7,5.7-14.9c5.6-5.8,12.5-9.9,19.5-13.7
				c0.9-0.5,1.8-1,3.1-1.7c-2-1.5-3.7-2.8-5.5-4.1c-5.1-3.7-10.3-7.2-15.2-11.1c-6.2-4.9-11.3-10.7-13.3-18.6c0-1.6,0-3.2,0-4.9
				c1.6-6.3,4.6-12,8.9-16.8c14.4-16.3,33-25.4,53.4-31.4c3.5-1,7.2-1.4,10.9-2.1C850.5,287.7,854,287.7,857.5,287.7z M811.9,380.5
				c-6.2,3.6-12,7.2-16.8,12.1c-2.6,2.6-4.4,5.8-4.9,9.6c-0.6,4.4,1.8,6.5,6.2,5.5c4.2-1,7.6-3.1,10.4-6.3
				C812.2,395.4,814.1,388.6,811.9,380.5z M833.4,384.1c0.4,2,0.7,4,1.2,5.9c0.4,1.4,1.4,1.6,2.3,0.4c0.4-0.5,0.8-1,1-1.5
				c1.6-3.7,3.4-7.4,4.8-11.1c1.8-4.9,3.3-10,4.8-15c0.2-0.7,0-1.9-0.4-2.2c-0.5-0.3-1.6-0.2-2.2,0.2c-1.4,0.9-3,1.9-4,3.3
				C836.4,369.9,833.8,376.6,833.4,384.1z M896.1,385.5c5.3-0.7,9-7.4,6.5-11.6C899.3,377.2,896.9,380.8,896.1,385.5z M871.7,391.4
				c4-0.6,8.4-5.8,8-9.3C877,385.2,874.4,388.2,871.7,391.4z"/>
		</g>
	</g>
</g>
<g id="Le6tSy.tif">
	<g>
		<path fill="#46535B" d="M575.3,1334.6c1.5,0,3,0,4.5,0c2.2,0.2,4.4,0.4,6.6,0.7c15.4,2.1,28.5,8.8,39.3,20
			c9.2,9.6,15,21,17.4,34.1c0.4,2.3,0.7,4.7,1,7c0,3.3,0,6.7,0,10c-0.1,0.3-0.2,0.6-0.3,1c-1.8,19-10.5,34.2-25.1,46.2
			c-6.1,5-13.2,8.5-20.7,11c-0.4,0-0.8,0-1.2,0c-2.1-0.7-2.8-2.2-2.7-4.3c0-5.9,0-11.8,0-17.7c0-4.4-0.9-8.5-4.4-11.9
			c0.7-0.1,1.1-0.2,1.6-0.3c3.5-0.8,7.2-1.3,10.5-2.5c6.1-2.2,11.3-5.8,14.3-11.9c2-4,3.1-8.3,3.6-12.8c0.9-8.3-0.3-16.1-6.1-22.7
			c-0.3-0.3-0.4-0.9-0.2-1.3c1.6-4.6,1.4-9.2,0.1-13.8c-1-3.5-1.5-3.8-5.1-3.1c-0.1,0-0.2,0.1-0.3,0.1c-4.6,1.2-8.8,3.4-12.8,6
			c-0.6,0.4-1.5,0.6-2.2,0.4c-10.4-2.6-20.8-2.6-31.2,0c-0.6,0.1-1.4-0.1-1.9-0.3c-3.8-1.8-7.4-3.8-11.3-5.4
			c-1.6-0.7-3.4-0.7-5.2-0.9c-0.4,0-1.1,0.4-1.2,0.8c-1.9,5.1-2.7,10.4-0.8,15.7c0.3,1,0.2,1.6-0.5,2.4c-2.3,2.6-3.9,5.6-4.9,9
			c-1.5,5.2-1.3,10.5-0.5,15.8c0.9,5.3,2.5,10.4,6.1,14.6c4.4,5.1,10.2,7.7,16.5,9.1c2.2,0.5,4.4,0.8,6.6,1.2
			c-0.8,1.3-1.8,2.5-2.4,3.9c-0.6,1.4-0.9,2.9-1.3,4.3c-0.1,0.4-0.5,0.8-0.8,0.9c-7.3,2.7-13.5,2.1-18-4.9c-0.9-1.4-1.9-2.9-3.1-4
			c-2.6-2.4-5.5-4.2-9.2-3.6c-1.5,0.2-1.8,0.8-0.9,2c0.6,0.8,1.5,1.4,2.2,2c1.1,1,2.5,1.7,3.2,2.9c1.6,2.3,2.7,4.9,4.2,7.3
			c1,1.6,2,3.2,3.3,4.4c3.1,2.8,7.1,3.3,11,3.4c2.6,0.1,5.2-0.2,7.9-0.3c0,3.7-0.1,7.5,0,11.3c0,2.1-0.7,3.6-2.8,4.3
			c-0.4,0-0.8,0-1.2,0c-0.1-0.1-0.2-0.2-0.4-0.2c-24.2-8.6-38.9-25.5-44.5-50.4c-0.6-2.5-0.8-5-1.2-7.5c0-3.3,0-6.7,0-10
			c0.1-0.5,0.2-1,0.3-1.4c0.7-4.1,1.2-8.2,2.3-12.2c4.4-15.2,13.2-27.3,26.1-36.4c9.1-6.3,19.2-10.2,30.3-11.3
			C571.8,1335,573.5,1334.8,575.3,1334.6z"/>
	</g>
</g>
<g>
	<g id="Dbre3c.tif">
		<g>
			<path fill="#FED237" d="M343.4,1377.2c0.9-0.2,1.3-1,1.9-1.6c4.4-4.4,8.8-8.7,13.1-13.1c1-1,2.2-1.7,3.7-1.3c1.4,0.5,1.8,1.6,2,3
				c1.5,9.9,3.3,19.6,4.6,29.5c1.2,9.1,3.1,18.1,4.6,27.2c0.9,5.1,1.5,10.3,2.6,15.3c0.6,2.9-1,3.9-2.9,5c-7.1,4-14.3,7.9-21.4,11.8
				c-6.1,3.4-12.2,6.7-18.2,10.1c-3.3,1.8-6.5,1.8-9.8,0c-13.7-7.6-27.4-15.3-41.1-22.9c-0.6-0.3-1.8-0.5-1.3-1.7
				c0.8-0.1,1.3-0.8,1.8-1.3c11.1-11.1,22.2-22.2,33.3-33.3c4.7-4.7,9.3-9.7,14.3-14.2C335.1,1385.7,339.3,1381.5,343.4,1377.2z"/>
			<path fill="#FEB518" d="M343.4,1377.2c-4.1,4.3-8.3,8.5-12.7,12.5c-4.9,4.5-9.5,9.4-14.3,14.2c-11.1,11.1-22.2,22.2-33.3,33.3
				c-0.5,0.5-1,1.2-1.8,1.3c2.5-15.9,5-31.7,7.5-47.6c2.4-15,4.7-30.1,7-45.1c0.4-2.9,0.9-5.7,1.4-8.6c0.2-1.4,1-2.4,2.4-2.7
				c1.5-0.3,2.5,0.4,3.2,1.7c2.9,5.6,6,11.1,8.9,16.7c1.7,3.5,3.8,6.9,5.8,10.3c0.7,1.2,0.6,2.7,2.1,3.7c1.7-3.3,3.5-6.5,5.2-9.8
				c0.4-0.7,0.8-1.5,1.2-2.2c1.7-2.9,4.1-3,5.7,0c2.3,4.3,4.6,8.6,6.9,12.9C340.1,1371,341.7,1374.1,343.4,1377.2z"/>
		</g>
	</g>
	<polygon fill="#F79305" points="281.3,1438.6 319.5,1367.1 330.7,1389.7 	"/>
</g>
<g>
	<g>
		<rect x="1187.7" y="628.1" fill="#542016" width="127.6" height="119.4"/>
		<path fill="#FE902D" d="M1320.6,752.8h-138.2v-130h138.2V752.8z M1193,742.2h117V633.5h-117V742.2z"/>
	</g>
	<g>
		<g>
			<path fill="#FE902D" d="M1240.8,657.4c1.8,0,3.7,0,5.5,0c0.9,0,0.9,0,1.1,0.9c3.5,11.8,7,23.6,10.4,35.4
				c2.5,8.4,4.9,16.7,7.4,25.1c0,0.2,0.1,0.3,0.1,0.5c0.1,0.4-0.1,0.6-0.5,0.6c-0.1,0-0.1,0-0.2,0c-3,0-6.1,0-9.1,0
				c-0.6,0-0.9-0.2-1.1-0.8c-1.5-5.4-3-10.8-4.4-16.2c-0.1-0.4-0.3-0.5-0.7-0.5c-5.7,0-11.3,0-17,0c-0.5,0-0.6,0.2-0.7,0.6
				c-1.4,5.3-2.8,10.7-4.2,16c-0.2,0.9-0.3,1-1.2,1c-2.5,0-5.1,0-7.6,0c-1,0-1.2-0.2-0.9-1.2c1.3-4.5,2.5-8.9,3.8-13.4
				c4-14.1,8.1-28.3,12.1-42.4c0.4-1.6,0.5-3.2,0.6-4.8c0-0.6,0.2-0.8,0.8-0.8C1237,657.4,1238.9,657.4,1240.8,657.4z M1240.8,666.5
				c-0.2,0.9-0.4,1.8-0.5,2.7c-1.7,7.8-3.8,15.6-5.9,23.3c-0.2,0.7-0.2,0.7,0.5,0.7c4,0,7.9,0,11.9,0c1,0,0.8,0.1,0.6-0.8
				c-2.1-8.2-4.3-16.3-6.2-24.5C1241,667.3,1241,666.9,1240.8,666.5z"/>
		</g>
		<g>
			<path fill="#FE902D" d="M1273.8,696.7c0-7.2,0-14.4,0-21.6c0-1.3,0-1.3,1.4-1.3c2.6,0,5.3,0,7.9,0c0.8,0,0.9,0.1,0.9,0.9
				c0,14.7,0,29.5,0,44.2c0,0.8-0.1,0.9-0.9,0.9c-2.8,0-5.5,0-8.3,0c-0.8,0-1-0.2-1-1C1273.8,711.5,1273.8,704.1,1273.8,696.7z"/>
		</g>
		<g>
			<path fill="#FE902D" d="M1278.9,667.4c-3.4,0.1-5.7-2.1-5.8-5.7c-0.1-3.4,2.2-5.8,5.7-5.9c3.4-0.1,5.8,2.2,5.9,5.7
				C1284.7,665,1282.5,667.3,1278.9,667.4z"/>
		</g>
	</g>
</g>
<g id="pyI42I.tif">
	<g>
		<path fill="#70E0FB" d="M38.4,1442.2c0.1-5.7,1-11.5,2.4-17.3c0.2-0.7,0-0.9-0.6-1.1c-5.3-1.5-10.5-3.5-15.3-6.1
			c-4.3-2.3-8.2-5.1-11.2-9.1c-4.2-5.8-4.2-12.5,0.1-18.2c2.8-3.7,6.4-6.3,10.3-8.5c5.1-2.9,10.5-4.9,16-6.5
			c0.7-0.2,0.8-0.5,0.6-1.1c-1.1-4.8-2-9.6-2.3-14.6c-0.3-5,0-10,1.7-14.7c1.5-4,3.9-7.3,7.9-9.1c3.6-1.6,7.3-1.6,11.1-0.7
			c5.3,1.3,9.8,4,14.2,7.1c3.3,2.4,6.5,5,9.4,7.9c0.5,0.5,0.7,0.4,1.1,0c4.2-4,8.6-7.7,13.7-10.7c3.6-2.1,7.3-3.9,11.4-4.6
			c5.3-0.9,10.2,0.1,14,4.2c2.4,2.5,3.6,5.7,4.4,9c0.8,3.6,1,7.2,0.8,10.9c-0.3,5.2-1.1,10.3-2.4,15.3c-0.2,0.6-0.1,0.9,0.6,1
			c5,1.4,9.9,3.2,14.5,5.7c3.8,2,7.3,4.3,10.2,7.4c2.4,2.5,4.2,5.4,4.7,8.9c0.6,4.1-0.4,7.7-2.8,11c-2.6,3.7-6.2,6.4-10.1,8.6
			c-5.1,3-10.6,5.1-16.2,6.7c-1.2,0.3-1.2,0.3-0.9,1.5c1.1,4.7,1.9,9.4,2.2,14.2c0.3,4.9,0,9.7-1.5,14.4c-1.2,3.5-3.1,6.6-6.4,8.6
			c-3,1.9-6.3,2.5-9.8,2.1c-6-0.7-11.2-3.5-16.1-6.9c-3.7-2.5-7.2-5.5-10.4-8.6c-0.4-0.4-0.7-0.3-1.1,0c-3.7,3.5-7.6,6.8-11.8,9.5
			c-3.9,2.5-8,4.6-12.6,5.6c-4.5,0.9-8.8,0.5-12.6-2.2c-3.2-2.3-4.9-5.5-6-9.1C38.8,1449.4,38.5,1446,38.4,1442.2z M84.3,1423.2
			c3.2,0.1,7.3-0.1,11.4-0.4c0.7,0,1-0.3,1.4-0.8c4.6-6.8,8.7-14,12.4-21.3c0.4-0.8,0.4-1.5,0-2.3c-1.5-2.9-3-5.8-4.5-8.6
			c-2.5-4.4-5.1-8.7-7.9-12.9c-0.2-0.3-0.4-0.5-0.9-0.5c-3.7-0.3-7.4-0.4-11-0.5c-4.6-0.1-9.2,0.1-13.8,0.4c-1,0.1-1.5,0.4-2,1.2
			c-4.6,6.9-8.7,14-12.3,21.4c-0.2,0.5-0.3,0.9,0,1.4c1.5,3,3,6,4.7,9c2.5,4.4,5.2,8.8,8,13c0.2,0.3,0.4,0.5,0.9,0.5
			c0.9,0,1.7,0.1,2.6,0.2C76.6,1423.2,80,1423.2,84.3,1423.2z M44.6,1442.3c0,1.9,0.1,3.6,0.3,5.3c0.3,2.3,0.9,4.5,2,6.5
			c1.4,2.4,3.3,3.9,6.1,4.2c2.6,0.3,5-0.3,7.4-1.2c7.1-2.8,12.7-7.6,18.1-12.7c0.4-0.3,0.3-0.6,0-0.9c-4.2-4.5-8-9.3-11.6-14.3
			c-0.3-0.4-0.6-0.6-1.1-0.6c-1.6-0.1-3.2-0.3-4.8-0.5c-4.5-0.6-9.1-1.3-13.5-2.4c-0.4-0.1-0.6-0.1-0.7,0.4
			C45.6,1431.5,44.7,1437,44.6,1442.3z M122.1,1442.6c0-0.8-0.1-1.7-0.1-2.5c-0.2-4.7-1.1-9.3-2.1-13.8c-0.1-0.6-0.3-0.7-0.9-0.5
			c-5.7,1.3-11.4,2.2-17.3,2.7c-1,0.1-1.8,0.3-2.5,1.3c-3.3,4.7-6.9,9.1-10.8,13.4c-0.8,0.9-1,0.7,0.1,1.7c3,2.8,6.1,5.5,9.5,7.8
			c3.7,2.5,7.5,4.7,11.9,5.5c2.6,0.5,5.1,0.3,7.3-1.3c1.7-1.2,2.6-2.9,3.4-4.7C121.8,1449.1,122,1445.9,122.1,1442.6z M42.5,1381.2
			c-0.1,0-0.2,0.1-0.3,0.1c-5.5,1.6-10.8,3.6-15.8,6.5c-2.9,1.7-5.5,3.7-7.6,6.4c-2.7,3.5-2.7,7.2-0.1,10.8c1.8,2.5,4.1,4.3,6.6,5.9
			c5.2,3.3,10.9,5.4,16.7,7.1c0.5,0.1,0.7,0.1,0.9-0.4c1.8-5.9,4-11.5,6.6-17.1c0.3-0.6,0.2-1.1,0-1.6c-1.6-3.4-3-6.9-4.3-10.5
			c-0.8-2.2-1.5-4.3-2.2-6.5C42.8,1381.5,42.9,1381.1,42.5,1381.2z M44.6,1356.8c0.1,1.4,0.2,3.1,0.3,4.8c0.3,3.9,1.1,7.7,2,11.4
			c0.1,0.5,0.3,0.5,0.7,0.4c2.2-0.5,4.3-0.9,6.5-1.3c3.9-0.7,7.9-1.2,11.8-1.6c0.5,0,0.7-0.2,1-0.6c3.6-5,7.4-9.8,11.6-14.3
			c0.4-0.5,0.3-0.7-0.1-1.1c-3.8-3.6-7.8-7-12.3-9.7c-3.2-1.9-6.5-3.5-10.3-4c-4.2-0.6-7.7,1.3-9.4,5.3
			C45,1349.5,44.7,1353,44.6,1356.8z M149.9,1399.7c0-1.8-0.5-3.2-1.4-4.6c-1.9-3-4.6-5.1-7.6-6.9c-5-3.1-10.4-5.1-16-6.8
			c-0.7-0.2-1-0.1-1.2,0.6c-1.7,5.6-3.9,11.1-6.3,16.5c-0.4,0.8-0.3,1.5,0,2.2c2.5,5.4,4.6,11,6.4,16.6c0.2,0.5,0.3,0.7,0.9,0.5
			c4.7-1.4,9.3-3.1,13.6-5.4c3.2-1.7,6.2-3.6,8.6-6.3C148.6,1404.3,149.9,1402.2,149.9,1399.7z M122.1,1356.4
			c0.1-0.7-0.1-1.6-0.1-2.5c-0.1-2.7-0.6-5.3-1.7-7.7c-1.5-3.5-4.3-5.3-8.1-5.3c-2.8,0-5.4,0.9-7.9,2.1c-6.1,2.9-11.3,7.2-16.1,11.8
			c-0.4,0.3-0.4,0.6,0,0.9c4.2,4.5,8,9.3,11.6,14.3c0.3,0.4,0.7,0.6,1.2,0.6c2.1,0.2,4.2,0.4,6.3,0.7c4,0.5,8,1.3,11.9,2.1
			c0.4,0.1,0.6,0,0.7-0.4C121.1,1367.7,122,1362.2,122.1,1356.4z M62,1377.4c-0.1,0-0.2-0.1-0.2-0.1c-4.2,0.6-8.3,1.2-12.4,2.1
			c-0.5,0.1-0.7,0.3-0.5,0.8c0.9,2.9,2,5.8,3.1,8.6c0.4,1.1,0.8,2.2,1.5,3.4C56.1,1387,59,1382.1,62,1377.4z M104.8,1421.7
			c0.3,0.2,0.6,0.1,0.8,0.1c4-0.5,7.9-1.2,11.8-2c0.6-0.1,0.5-0.4,0.4-0.8c-1-3.2-2.2-6.4-3.5-9.6c-0.3-0.8-0.5-1.6-1.1-2.4
			C110.6,1412.1,107.8,1417,104.8,1421.7z M104.6,1377.2c3.2,4.9,5.9,9.8,8.7,15c0.2-0.3,0.2-0.4,0.3-0.5c1.6-3.8,3-7.6,4.3-11.5
			c0.2-0.6-0.1-0.7-0.5-0.7C113.2,1378.5,109,1377.8,104.6,1377.2z M62,1421.9c-3.1-4.9-5.9-9.8-8.6-14.9c-0.1,0.3-0.2,0.4-0.3,0.6
			c-1.5,3.7-2.9,7.5-4.2,11.3c-0.2,0.7,0,0.9,0.6,1c2.6,0.5,5.3,1,7.9,1.5C58.9,1421.5,60.3,1421.9,62,1421.9z M91.8,1370
			c0-0.2,0-0.3-0.1-0.3c-2.5-3.3-5.1-6.5-7.9-9.5c-0.4-0.4-0.6-0.4-1,0c-1.9,2.1-3.7,4.2-5.5,6.4c-0.8,1-1.7,2.1-2.6,3.4
			C80.6,1369.7,86.1,1369.7,91.8,1370z M74.9,1429.3c0.1,0.2,0.1,0.4,0.2,0.4c2.5,3.3,5.1,6.4,7.9,9.4c0.4,0.4,0.6,0.3,0.9-0.1
			c2.1-2.3,4.1-4.7,6-7.1c0.7-0.8,1.4-1.6,2-2.7C86.1,1429.6,80.6,1429.5,74.9,1429.3z"/>
		<path fill="#70E0FB" d="M96.4,1399.7c0,7.2-5.8,13.1-13,13c-7.4-0.1-13-6.2-13-13.1c0.1-7.2,5.8-13,13.1-13
			C90.6,1386.5,96.5,1392.6,96.4,1399.7z"/>
	</g>
</g>
<line fill="none" stroke="#A8A8A8" stroke-miterlimit="10" x1="159.1" y1="472.4" x2="985.1" y2="472.4"/>
<g>
	
		<text transform="matrix(1 0 0 1 272.6236 452.0158)" fill="#3F4854" font-family="'Lato-Regular'" font-size="11.4379" letter-spacing="1">HTML5</text>
</g>
<g>
	
		<text transform="matrix(1 0 0 1 95.5709 1328.3826)" fill="#3F4854" font-family="'Lato-Regular'" font-size="11.4379" letter-spacing="1">FIREBASE</text>
</g>
<g>
	
		<text transform="matrix(1 0 0 1 -36.8913 1328.3826)" fill="#3F4854" font-family="'Lato-Regular'" font-size="11.4379" letter-spacing="1">REACT JS</text>
</g>
<g>
	
		<text transform="matrix(1 0 0 1 -169.3544 1328.3826)" fill="#3F4854" font-family="'Lato-Regular'" font-size="11.4379" letter-spacing="1">REST API</text>
</g>
<g>
	
		<text transform="matrix(1 0 0 1 411.5032 452.0165)" fill="#3F4854" font-family="'Lato-Regular'" font-size="11.4379" letter-spacing="1">CSS3</text>
</g>
<g>
	
		<text transform="matrix(1 0 0 1 538.7622 452.0165)" fill="#3F4854" font-family="'Lato-Regular'" font-size="11.4379" letter-spacing="1">SASS</text>
</g>
<g>
	
		<text transform="matrix(1 0 0 1 232.5589 1328.3826)" fill="#3F4854" font-family="'Lato-Regular'" font-size="11.4379" letter-spacing="1">GITHUB</text>
</g>
<g>
	
		<text transform="matrix(1 0 0 1 347.9905 1328.3826)" fill="#3F4854" font-family="'Lato-Regular'" font-size="11.4379" letter-spacing="1">ILLUSTRATOR</text>
</g>
<g>
	
		<text transform="matrix(1 0 0 1 653.7211 452.0165)" fill="#3F4854" font-family="'Lato-Regular'" font-size="11.4379" letter-spacing="1">JAVASCRIPT</text>
</g>
<g>
	
		<text transform="matrix(1 0 0 1 796.1186 452.0158)" fill="#3F4854" font-family="'Lato-Regular'" font-size="11.4379" letter-spacing="1">JQUERY</text>
</g>
<g>
	<g id="VjEJ2S.tif_1_">
		<g>
			<g>
				<path fill="#46535B" d="M-99.8,1397.3c-0.1-7.8-1.9-15.3-4.8-22.5c-2.3-5.8-5.6-11.2-9.5-16.1c-3-3.7-6.3-7-10.1-10
					c-3.6-2.8-7.4-5.3-11.5-7.4c-5.8-2.9-11.8-4.9-18.2-5.9c-1.9-0.3-3.9-0.5-5.9-0.7c-0.2,0-0.4-0.1-0.5-0.2c-3,0-5.9,0-8.9,0
					c-0.8,0.1-1.5,0.3-2.3,0.4c-3.9,0.3-7.7,1-11.3,2.2c-2.8,0.9-5.6,1.8-8.3,3c-5.3,2.3-10.2,5.2-14.6,8.9c-2.6,2.2-5,4.5-7.3,6.9
					c-3.6,3.9-6.5,8.2-9,12.8c-2.6,4.9-4.6,10-5.9,15.4c-0.6,2.6-0.9,5.3-1.4,8c-0.1,0.9-0.3,1.8-0.4,2.7c0,3.2,0,6.3,0,9.5
					c0.1,0.8,0.3,1.6,0.4,2.4c0.6,6.4,2.3,12.5,4.7,18.4c2.2,5.2,5,10.1,8.6,14.5c2.1,2.5,4.2,5,6.5,7.2c3.8,3.7,8.1,6.8,12.7,9.3
					c3.9,2.2,7.9,4,12.1,5.3c3.5,1.1,7.1,2.1,10.9,2.4c3.3,0.3,6.7,0.7,10,0.7c4.3,0,8.6-0.5,12.8-1.4c6.2-1.3,12.1-3.6,17.7-6.6
					c3.8-2.1,7.3-4.5,10.5-7.3c1.7-1.5,3.4-3,4.9-4.6c3.4-3.5,6.3-7.4,8.8-11.6c2.3-3.8,4.2-7.9,5.6-12.1c1.4-4,2.4-8.1,2.9-12.3
					c0.2-2.2,0.4-4.5,0.6-6.7c0-0.2,0.1-0.5,0.2-0.7c0-1,0-2,0-3C-99.6,1397.9-99.8,1397.6-99.8,1397.3z M-201.3,1386.3
					c-0.7,0-1.3,0-2,0c-1.9,0-2.8,0.8-2.9,2.7c-0.1,2,0,4-0.1,6c0,0.6,0,1.2,0,1.8c-0.1,1.4-0.3,2.7-1.7,3.5
					c1.3,0.8,1.7,1.9,1.7,3.2c0,2.3,0,4.7,0,7c0,0.5,0,1,0.1,1.5c0.2,1.3,1.1,2.1,2.4,2.2c0.8,0,1.5,0,2.4,0c0,1.2,0,2.3,0,3.4
					c-4.9,0.8-8.6-1.6-8.7-6.6c0-2.1,0-4.2,0-6.3c0-0.7-0.3-1.4-0.5-2.1c0-0.2-0.2-0.4-0.4-0.4c-1.6-0.3-1.2-1.5-1.2-2.6
					c0-0.2,0-0.4,0-0.7c1.9-0.3,2.1-1.7,2.1-3.2c0-2.3-0.1-4.7,0.1-7c0.3-3.6,2.7-5.6,6.3-5.8c0.7,0,1.5,0,2.3,0
					C-201.3,1384-201.3,1385.1-201.3,1386.3z M-173.1,1411.9c-1.7,0-3.3,0-5.1,0c0-0.6-0.1-1.1-0.1-1.8c-1.5,1.4-3.2,2.1-5,2.3
					c-4.6,0.5-8.6-2.9-7.6-7.9c0.5-2.5,2.5-4.3,5.3-4.7c2.7-0.3,5.2,0.1,7.2,1.9c0.6-3.1,0.1-4.9-3.1-5.4c-2.1-0.3-4.1,0.3-5.8,1.6
					c-0.2,0.2-0.5,0.4-0.8,0.6c-0.6-1.1-1.3-2.2-1.9-3.4c1.1-1,2.3-1.7,3.6-2.2c2.9-1.1,5.8-1.2,8.7-0.3c2.7,0.9,4.4,2.8,4.5,5.6
					C-173,1402.7-173.1,1407.2-173.1,1411.9z M-149.2,1407c-2.2,6-9.8,7.1-13.7,2.6c0,3.3,0,6.4,0,9.6c-1.8,0-3.5,0-5.2,0
					c0-8.9,0-17.8,0-26.7c1.7,0,3.3,0,5.1,0c0,0.7,0,1.4,0,2.2c0.2-0.1,0.4-0.2,0.4-0.3c3.5-4,11-3.1,13.3,2.8
					C-148,1400.5-148,1403.8-149.2,1407z M-139.6,1411.9c-1.7,0-3.3,0-5,0c0-6.4,0-12.9,0-19.4c1.7,0,3.4,0,5,0
					C-139.6,1399-139.6,1405.4-139.6,1411.9z M-142.1,1390.4c-1.7,0-3.1-1.4-3.1-3.1c0-1.7,1.4-3,3.1-3c1.7,0,3.1,1.3,3,3
					C-139.1,1389.1-140.5,1390.4-142.1,1390.4z M-117.2,1401.7c-1.5,0.2-2,1.3-2,2.6c0,2.2,0,4.3,0,6.5c0,2.2-0.6,4.3-2.5,5.6
					c-0.9,0.6-2,1-3,1.2c-1,0.2-2,0-3.1,0c0-1.1,0-2.2,0-3.4c0.6,0,1.2,0,1.8,0c2.1,0,3-0.9,3.1-3c0.1-2.2,0-4.5,0-6.7
					c0-0.6,0-1.1,0.1-1.7c0.1-1.1,0.5-1.7,1.6-2.6c-1.6-1-1.7-2.7-1.7-4.3c0-2.1,0-4.1,0-6.2c0-0.5,0-1-0.1-1.4
					c-0.2-1.2-1.1-2-2.4-2.1c-0.8,0-1.5,0-2.4,0c0-1.2,0-2.3,0-3.4c3.8-0.5,6.5,0.5,7.9,3.4c0.5,1.1,0.6,2.4,0.7,3.6
					c0.1,2.2,0,4.4,0.1,6.6c0,1.4,0.5,1.9,2,2.4C-117.2,1399.9-117.2,1400.8-117.2,1401.7z"/>
				<path fill="#46535B" d="M-162.9,1402.1c0-0.8,0.1-1.7,0-2.5c-0.1-0.8,0.3-1.4,0.9-1.8c1.8-1.3,3.7-1.8,5.7-0.7
					c2.1,1.1,2.7,3.1,2.6,5.3c0,1.2-0.3,2.4-1,3.4c-1.9,2.8-5.8,2.5-7.9,0.1c-0.2-0.2-0.2-0.5-0.2-0.8
					C-162.9,1404.1-162.9,1403.1-162.9,1402.1z"/>
				<path fill="#46535B" d="M-178.3,1406c0.4,1.3-0.4,1.9-1.4,2.3c-1.6,0.7-3.3,0.9-4.9,0c-1.8-1-1.8-3.4-0.1-4.5
					c1.6-1,4.6-0.8,5.9,0.5c0.4,0.4,0.5,1,0.7,1.6C-178.1,1405.9-178.2,1406-178.3,1406z"/>
			</g>
		</g>
	</g>
</g>
<g id="_x34_Sr4SB.tif_2_">
	<g>
		<g>
			<path fill="#EC6431" d="M521.6,1561.3c38.3,0,76.4,0,114.9,0c-0.8,9.3-1.6,18.3-2.4,27.4c-2.3,25.9-4.6,51.8-6.9,77.7
				c-0.1,1.2-0.6,2.4-0.4,3.5c1.2,7.8-3.2,10-9.9,11.5c-11.8,2.7-23.4,6.4-35.1,9.5c-1.8,0.5-3.9,0.5-5.7,0
				c-13.8-3.7-27.6-7.7-41.5-11.4c-2.2-0.6-2.9-1.7-3.1-3.7c-1.8-21.3-3.7-42.7-5.6-64c-1.4-15.9-2.8-31.7-4.2-47.6
				C521.7,1563.3,521.7,1562.4,521.6,1561.3z M558.7,1599.5c2.7,0,4.6,0,6.5,0c15,0.1,30.1,0.3,45.1,0.4c1.8,0,3.9,0.4,4.1-2.3
				c0.3-4.1,0.7-8.2,1.1-12.3c-24.5,0-48.5,0-72.7,0c1.3,14.7,2.6,29,3.9,43.8c16.8,0,33.2,0,49.7,0c-0.5,5.9-0.9,11.3-1.6,16.6
				c-0.1,0.7-1,1.8-1.8,2c-8.2,2.4-16.4,5.4-25,1.2c-0.5-0.2-1-0.3-1.5-0.4c-2.7-0.3-4.1-1.5-4-4.5c0.1-2.7-0.5-5.4-0.9-8.3
				c-4.8,0-9.4,0-14.5,0c0.6,7.3,1.2,14.5,2,21.6c0.1,0.9,1.9,1.9,3.1,2.3c8.1,2.4,16.3,4.7,24.5,6.9c1.6,0.4,3.4,0.4,5,0
				c8.1-2.1,16.1-4.5,24.1-6.6c2.4-0.6,3.3-1.9,3.4-4.4c0.6-8.1,1.4-16.1,2.1-24.2c0.5-5.7,0.8-11.3,1.3-17.3c-18,0-35.3,0-52.8,0
				C559.5,1609.1,559.1,1604.6,558.7,1599.5z"/>
		</g>
	</g>
</g>
<path fill="#49ACDE" d="M115.1,0c0,0-0.1,0-0.1,0C76.8,0,38.7,0,0.6,0C0.5,0,0.4,0,0.3,0C0,0,0,0.1,0,0.3c0.1,1.1,0.2,2.3,0.3,3.4
	C0.5,5.5,0.7,7.2,0.8,9C1,11,1.2,13,1.4,15.1c0.2,2,0.4,4,0.5,6c0.2,2.3,0.4,4.6,0.6,6.9c0.2,1.7,0.3,3.4,0.5,5.2
	c0.2,2.3,0.4,4.6,0.6,6.9C3.9,42,4,44,4.2,45.9c0.2,2.3,0.4,4.7,0.6,7c0.2,2,0.4,3.9,0.5,5.9c0.2,2.3,0.4,4.7,0.6,7
	c0.2,2,0.4,4,0.5,6c0.2,2.3,0.4,4.6,0.6,6.8c0.2,2,0.4,4,0.5,5.9c0.2,2.3,0.4,4.6,0.6,6.9c0.2,2,0.4,3.9,0.5,5.9
	c0.2,2.3,0.4,4.6,0.6,6.9c0.2,2,0.4,4,0.5,6c0.2,2.2,0.4,4.5,0.6,6.7c0,0.2,0.1,0.3,0.4,0.4c5.3,1.4,10.7,2.9,16,4.3
	c10.1,2.7,20.2,5.4,30.3,8.2c0.1,0,0.2,0,0.2,0.1c0.1,0,0.2,0,0.3,0c1-0.3,1.9-0.6,2.9-0.8c10.7-2.9,21.3-5.7,32-8.6
	c3.8-1,7.7-2.1,11.5-3.1c0.3-0.1,0.4-0.2,0.4-0.5c0.3-3.1,0.6-6.2,0.8-9.3c0.3-3.6,0.7-7.2,1-10.8c0.3-2.8,0.5-5.6,0.8-8.5
	c0.3-3.1,0.6-6.1,0.9-9.2c0.2-2.5,0.5-5.1,0.7-7.6c0.3-2.8,0.5-5.6,0.8-8.5c0.2-2.5,0.5-5.1,0.7-7.6c0.2-2.5,0.5-5.1,0.7-7.6
	c0.2-2.3,0.4-4.5,0.6-6.8c0.2-2.3,0.4-4.6,0.6-6.9c0.2-2,0.4-4,0.5-6c0.2-2.3,0.4-4.6,0.6-6.9c0.2-2,0.4-4,0.5-6
	c0.2-2.3,0.4-4.6,0.6-6.9c0.2-2,0.4-4,0.5-6c0.1-0.7,0.1-1.4,0.2-2.1C115.6,0,115.6,0,115.1,0z M93.5,26c-0.1,0.9-0.2,1.7-0.3,2.6
	c-0.1,1.1-0.2,2.2-0.3,3.3c-0.1,1.1-0.2,2.2-0.3,3.2c-0.1,0.9-0.2,1.7-0.3,2.6c0,0.3-0.1,0.4-0.4,0.4c-0.8,0.4-1.5,0.7-2.3,1
	c-1.6,0.7-3.3,1.4-4.9,2.1c-1.2,0.5-2.5,1.1-3.7,1.6c-1.5,0.6-3,1.3-4.5,1.9c-3.4,1.5-6.9,3-10.3,4.4c-2.7,1.2-5.5,2.3-8.2,3.5
	c-0.1,0-0.2,0.1-0.3,0.1c0,0,0,0,0,0l0,0c0.2,0,0.3,0,0.5,0c6.6,0,13.3,0,19.9,0c0.2,0,0.3,0,0.5,0c2.2,0,4.4,0,6.6,0
	c1.8,0,3.6,0,5.4,0c0.3,0,0.4,0.1,0.4,0.4c-0.1,1.5-0.3,3.1-0.4,4.6c-0.1,1.3-0.2,2.6-0.3,3.9c-0.2,1.9-0.3,3.7-0.5,5.6
	c-0.1,1.5-0.3,3-0.4,4.5c-0.2,1.9-0.3,3.8-0.5,5.7c-0.1,1.5-0.3,3.1-0.4,4.6c-0.2,1.9-0.3,3.7-0.5,5.6c-0.1,1.5-0.3,3.1-0.4,4.6
	c-0.1,1.4-0.2,2.7-0.4,4.1c0,0.2-0.1,0.2-0.2,0.3c-2.8,0.8-5.6,1.6-8.4,2.4c-1.8,0.5-3.6,1.1-5.4,1.6c-5.1,1.5-10.3,3-15.4,4.5
	c0,0-0.1,0-0.1,0c0,0-0.1,0-0.1-0.1c-1.3-0.4-2.6-0.7-3.8-1.1c-3.8-1.1-7.6-2.2-11.3-3.3c-4.7-1.4-9.3-2.8-14-4.1
	c-0.3-0.1-0.4-0.2-0.4-0.5c-0.2-2.9-0.5-5.7-0.7-8.6c-0.3-3.2-0.5-6.3-0.8-9.5c-0.1-1.1-0.2-2.2-0.3-3.4c0-0.3,0-0.4,0.3-0.4
	c4.7,0,9.3,0,14,0c0.3,0,0.3,0.1,0.4,0.3c0.2,2.7,0.4,5.3,0.7,8c0.1,0.9,0.2,1.8,0.2,2.7c0,0.6,0.5,0.5,0.7,0.6
	c5,1.2,9.9,2.5,14.9,3.7c0.1,0,0.2,0,0.3,0c0,0,0.1,0,0.1-0.1c0,0,0,0,0,0c0,0,0,0,0,0c0.1,0,0.2-0.1,0.4-0.1
	c5.1-1.4,10.2-2.9,15.3-4.3c0.4-0.1,0.6-0.3,0.6-0.7c0-0.2,0-0.4,0-0.7c0.1-1.9,0.2-3.7,0.3-5.6c0.2-2.8,0.3-5.6,0.5-8.4
	c0.1-0.9,0.1-1.9,0.2-2.8c0-0.3,0-0.4-0.4-0.4c-4.8,0-9.6,0-14.4-0.1c-0.9,0-1.7,0-2.6,0c0,2.5,0,5,0,7.5c0-2.5,0-5,0-7.5
	c0,0,0,0-0.1,0c-0.1,0-0.3,0-0.4,0c-10.5,0-21.1-0.1-31.6-0.1c-0.4,0-0.5-0.1-0.5-0.5c-0.2-2.6-0.4-5.2-0.6-7.9
	c-0.1-1.7-0.3-3.3-0.4-5c0-0.2-0.2-0.4,0.1-0.5c2.8-1.2,5.6-2.3,8.4-3.5c0.6-0.3,1.3-0.5,1.9-0.8c0.9-0.4,1.9-0.8,2.8-1.2
	c1.9-0.8,3.8-1.6,5.7-2.4c4.8-2,9.6-4,14.4-6c0.1,0,0.1,0,0.2-0.1c0,0,0.1,0,0.1-0.1c0-0.1,0-0.2,0-0.4c0,0.1,0,0.2,0,0.4
	c0.6-0.2,1.2-0.4,1.7-0.7c0,0,0,0-0.1-0.1c-0.6,0.1-1.1,0-1.7,0.1c0,0,0,0-0.1,0c-0.1,0-0.3,0-0.4,0c-11.3,0-22.6,0-34,0
	c-0.4,0-0.5-0.1-0.5-0.5c-0.3-2.3-0.6-4.6-0.8-6.9c-0.3-2.2-0.5-4.4-0.8-6.7c0-0.2,0-0.2,0.2-0.2c0.1,0,0.2,0,0.3,0
	c11.9,0,23.7,0,35.6,0c0.2,0,0.3,0,0.5,0c0,0,0,0,0.1,0c0.1,0,0.3,0,0.4,0c5.9,0,11.8,0,17.6,0c0.2,0,0.3,0,0.5,0c0.1,0,0.2,0,0.3,0
	c5.6,0,11.2,0,16.8,0c0.1,0,0.1,0,0.2,0c0,0,0.1,0,0.1,0C93.7,24.6,93.6,25.3,93.5,26z"/>
<g id="wJr9zT.tif_2_">
	<g>
		<path fill="#248DB8" d="M1329,340.9c0.8-2.2,0.8-4.6,1.2-6.9c1.5-7.8,4.7-14.7,9.8-20.9c1.9-2.3,3.6-4.6,5.5-6.9
			c0.4,0.7,0,1.1-0.2,1.6c-3.8,9.2-4.6,18.7-3.4,28.4c1.7,13.9,7.5,26,16.5,36.7c11,13,24.8,21.8,41.3,26.2c4.2,1.1,8.5,2,12.9,2
			c4,0.1,8,0.2,12,0.1c3.8-0.1,7.6-1.2,11.4-2.2c10.5-2.7,19.5-7.9,26.6-16.1c0.2-0.2,0.3-0.6,0.9-0.6c-1.1,2.7-2.5,5.1-4.1,7.4
			c-8.1,11.7-18.7,20.2-32.3,24.6c-6.2,2-12.6,3.1-19.2,3.3c-6.6,0.2-13.2-0.1-19.7-1.5c-6.6-1.4-12.8-4-18.7-7.3
			c-18.4-10.4-31.3-25.5-37.6-45.9c-1.3-4.3-2-8.7-2.6-13.2c0-0.3,0.1-0.7-0.3-0.9C1329,346.2,1329,343.5,1329,340.9z"/>
		<path fill="#248DB8" d="M1380.7,294.8c-1,3.1-1.9,5.9-2.4,8.8c-1.2,6.5-0.8,13,1.2,19.2c6.3,19.5,19.7,31.9,39.1,38
			c2.3,0.7,4.6,1.2,6.9,1.9c1.4,0.4,2.9,0.1,4.3,0.1c3.3,0.1,6.7,0.5,10-0.1c3.6-0.7,7.2-1.5,10.6-3c5.5-2.4,10.4-5.6,14.5-10.1
			c0.4-0.4,0.7-1,1.4-1.1c0.3,0.6-0.2,1-0.4,1.4c-6.4,12.5-16.5,20.3-30.2,23.3c-8.1,1.8-16.2,1.8-24.2,0.1
			c-7.6-1.6-14.4-5.1-20.5-9.8c-9-6.8-15.5-15.5-19.1-26.2c-1.7-5.1-2.6-10.4-2.4-15.8c0.4-8.7,3.2-16.6,8.6-23.4c0.8-1,1.4-2,2.1-3
			C1380.1,295,1380.3,295,1380.7,294.8z"/>
		<path fill="#248DB8" d="M1462.1,323.3c-2.9,5-6.8,8.7-12,11c-5.8,2.6-12,3.1-18.1,1.8c-13.9-2.9-23.4-11.1-27.4-24.8
			c-2.5-8.6-0.5-16.6,5.4-23.6c-0.3,1.4-0.8,2.9-1,4.3c-1.1,6.8,0.6,13.1,4,19c5.7,9.9,14.3,15.7,25.5,18c3.7,0.8,7.5,0.9,11.1,0.4
			c4-0.6,8-2.2,11.1-5.2C1461,323.8,1461.3,323.3,1462.1,323.3z"/>
	</g>
</g>
<path fill="none" stroke="#A8A8A8" stroke-miterlimit="10" d="M292.9,471.8"/>
<path fill="none" stroke="#A8A8A8" stroke-miterlimit="10" d="M292.9,438.8"/>
</svg>
