<?xml version="1.0" encoding="utf-8"?>
<!-- Generator: Adobe Illustrator 18.0.0, SVG Export Plug-In . SVG Version: 6.00 Build 0)  -->
<!DOCTYPE svg PUBLIC "-//W3C//DTD SVG 1.1//EN" "http://www.w3.org/Graphics/SVG/1.1/DTD/svg11.dtd">
<svg version="1.1" id="Layer_1" xmlns="http://www.w3.org/2000/svg" xmlns:xlink="http://www.w3.org/1999/xlink" x="0px" y="0px"
	 viewBox="0 0 778.1 234.4" enable-background="new 0 0 778.1 234.4" xml:space="preserve">
<g id="border_1_">
	<path fill="#9B9B9B" d="M721.3,234.4H56.8v-4c0-29.2-23.7-52.9-52.9-52.9H0V56.8h4c29.1,0,52.9-23.7,52.9-52.9V0h664.4v4
		c0,29.1,23.7,52.9,52.9,52.9h4v120.8h-4c-29.1,0-52.9,23.7-52.9,52.9V234.4z M64.6,226.5h648.9c2-30.4,26.3-54.8,56.7-56.7V64.6
		c-30.4-2-54.7-26.3-56.7-56.7H64.6c-2,30.4-26.3,54.7-56.7,56.7v105.2C38.3,171.8,62.7,196.1,64.6,226.5z"/>
</g>
<g id="github">
	<path fill="#5D626B" d="M259.9,117.9v31.6c-4,2.9-8.2,5-12.7,6.4c-4.5,1.3-9.3,2-14.4,2c-6.4,0-12.1-1-17.3-3
		c-5.2-2-9.6-4.7-13.2-8.3c-3.7-3.5-6.5-7.7-8.4-12.6c-2-4.9-3-10.2-3-16c0-5.9,0.9-11.2,2.9-16.1c1.9-4.9,4.6-9.1,8.1-12.6
		c3.5-3.5,7.8-6.3,12.8-8.2c5-1.9,10.6-2.9,16.8-2.9c3.2,0,6.1,0.3,8.9,0.8c2.7,0.5,5.3,1.2,7.7,2.1c2.4,0.9,4.5,1.9,6.4,3.2
		c1.9,1.3,3.7,2.6,5.3,4.2l-4.2,6.6c-0.6,1.1-1.5,1.7-2.5,1.9c-1.1,0.2-2.2,0-3.4-0.8c-1.2-0.7-2.4-1.4-3.5-2.1
		c-1.2-0.7-2.5-1.3-4-1.8c-1.5-0.5-3.1-0.9-4.9-1.2c-1.8-0.3-3.9-0.5-6.3-0.5c-3.9,0-7.3,0.6-10.4,1.9c-3.1,1.3-5.8,3.2-8,5.6
		s-3.9,5.3-5.1,8.7c-1.2,3.4-1.8,7.2-1.8,11.3c0,4.5,0.6,8.4,1.9,12c1.3,3.5,3.1,6.5,5.4,8.9c2.3,2.4,5.1,4.3,8.4,5.6
		c3.3,1.3,6.9,1.9,10.9,1.9c2.9,0,5.5-0.3,7.7-0.9c2.3-0.6,4.5-1.4,6.6-2.5v-14.1H237c-0.9,0-1.7-0.3-2.2-0.8
		c-0.5-0.5-0.8-1.2-0.8-1.9v-8.2H259.9z"/>
	<path fill="#5D626B" d="M298.1,85.5c0,1.1-0.2,2.2-0.7,3.2c-0.5,1-1.1,1.9-1.9,2.6c-0.8,0.7-1.7,1.4-2.7,1.8
		c-1.1,0.4-2.2,0.7-3.4,0.7c-1.2,0-2.2-0.2-3.3-0.7c-1-0.5-1.9-1.1-2.7-1.8c-0.7-0.8-1.4-1.6-1.8-2.6c-0.4-1-0.7-2.1-0.7-3.2
		c0-1.2,0.2-2.3,0.7-3.4c0.5-1.1,1.1-1.9,1.8-2.7c0.8-0.8,1.6-1.4,2.7-1.8c1-0.5,2.1-0.7,3.3-0.7c1.2,0,2.3,0.2,3.4,0.7
		c1,0.4,1.9,1.1,2.7,1.8c0.8,0.7,1.4,1.6,1.9,2.7C297.9,83.2,298.1,84.3,298.1,85.5z M296.3,101.7V157h-13.4v-55.4H296.3z"/>
	<path fill="#5D626B" d="M339.1,157.9c-4.8,0-8.5-1.4-11.1-4.1c-2.6-2.7-3.9-6.5-3.9-11.3v-30.9h-5.7c-0.7,0-1.3-0.2-1.8-0.7
		c-0.5-0.5-0.8-1.2-0.8-2.1v-5.3l8.9-1.5l2.8-15.1c0.2-0.7,0.5-1.3,1-1.7s1.1-0.6,1.9-0.6h6.9v17.4h14.8v9.5h-14.8v30
		c0,1.7,0.4,3.1,1.3,4.1c0.9,1,2,1.4,3.5,1.4c0.8,0,1.5-0.1,2.1-0.3c0.6-0.2,1.1-0.4,1.5-0.6s0.8-0.4,1.1-0.6c0.3-0.2,0.6-0.3,1-0.3
		c0.4,0,0.7,0.1,1,0.3c0.3,0.2,0.5,0.5,0.8,0.9l4,6.5c-1.9,1.6-4.2,2.8-6.7,3.7C344.4,157.5,341.8,157.9,339.1,157.9z"/>
	<path fill="#5D626B" d="M439.5,79v78h-14.6v-34.1h-36.7V157h-14.6V79h14.6v33.6h36.7V79H439.5z"/>
	<path fill="#5D626B" d="M512.2,101.7V157h-8.1c-1.8,0-2.9-0.8-3.4-2.4l-0.9-4.4c-2.3,2.3-4.8,4.2-7.5,5.6c-2.7,1.4-6,2.1-9.7,2.1
		c-3,0-5.7-0.5-8-1.5c-2.3-1-4.3-2.5-5.9-4.4c-1.6-1.9-2.8-4.1-3.6-6.7c-0.8-2.6-1.2-5.4-1.2-8.5v-35.2h13.3v35.2
		c0,3.4,0.8,6,2.3,7.8c1.6,1.9,3.9,2.8,7.1,2.8c2.3,0,4.5-0.5,6.5-1.5c2-1,3.9-2.4,5.7-4.2v-40H512.2z"/>
	<path fill="#5D626B" d="M549.5,108.5c2.2-2.3,4.7-4.2,7.4-5.6c2.7-1.4,5.8-2.1,9.3-2.1c3.2,0,6.1,0.6,8.7,1.9
		c2.6,1.3,4.8,3.1,6.6,5.4c1.8,2.3,3.2,5.2,4.2,8.5c1,3.4,1.5,7.1,1.5,11.3c0,4.5-0.6,8.6-1.7,12.2c-1.1,3.7-2.7,6.8-4.8,9.4
		c-2.1,2.6-4.6,4.6-7.5,6.1c-2.9,1.4-6.2,2.2-9.7,2.2c-1.7,0-3.3-0.2-4.7-0.5c-1.4-0.3-2.7-0.8-3.9-1.4c-1.2-0.6-2.3-1.4-3.3-2.2
		c-1-0.9-1.9-1.9-2.8-3l-0.6,3.7c-0.2,0.9-0.6,1.6-1.1,2c-0.5,0.4-1.2,0.6-2.1,0.6h-8.8V76.8h13.3V108.5z M549.5,142.7
		c1.5,1.8,3.2,3.1,4.9,3.9c1.8,0.7,3.7,1.1,5.6,1.1c2.1,0,3.9-0.4,5.5-1.1c1.6-0.7,3-1.9,4.2-3.5c1.2-1.6,2-3.5,2.6-6
		c0.6-2.4,0.9-5.3,0.9-8.7c0-6.1-1-10.5-3-13.2c-2-2.7-4.9-4.1-8.7-4.1c-2.6,0-4.8,0.6-6.7,1.8c-1.9,1.2-3.7,2.8-5.5,4.9V142.7z"/>
</g>
</svg>
