<?xml version="1.0" encoding="utf-8"?>
<!-- Generator: Adobe Illustrator 18.0.0, SVG Export Plug-In . SVG Version: 6.00 Build 0)  -->
<!DOCTYPE svg PUBLIC "-//W3C//DTD SVG 1.1//EN" "http://www.w3.org/Graphics/SVG/1.1/DTD/svg11.dtd">
<svg version="1.1" id="Layer_1" xmlns="http://www.w3.org/2000/svg" xmlns:xlink="http://www.w3.org/1999/xlink" x="0px" y="0px"
	 viewBox="0 0 137.3 130" enable-background="new 0 0 137.3 130" xml:space="preserve">
<g id="bGuk42.tif">
	<g>
		<path fill="#F2DF61" d="M-678.9-1166.1c0-43.3,0-86.7,0-130c43,0,86.1,0,129.1,0c1,0,0.9-0.1,0.9,0.9c0,42.7,0,85.5,0,128.2
			c0,0.2,0,0.3,0,0.5c0,0.3-0.1,0.4-0.4,0.4c-0.2,0-0.5,0-0.7,0c-42.7,0-85.3,0-128,0C-678.3-1166.1-678.6-1166.1-678.9-1166.1z
			 M-579.4-1176.4c3,0,5.9-0.4,8.8-1.3c4-1.4,7.3-3.6,9.5-7.4c1.7-3,2.2-6.4,2-9.8c-0.3-4.9-2.2-8.9-6.1-12
			c-2.6-2.1-5.4-3.6-8.4-4.9c-2.5-1.1-5.1-2.1-7.6-3.4c-1.2-0.6-2.3-1.3-3.2-2.2c-2.1-2.1-2.3-7.2,2-8.7c2.9-1,5.7-0.5,8,1.7
			c0.9,0.8,1.5,1.7,2.1,2.7c0.2,0.3,0.3,0.3,0.6,0.1c2.9-1.9,5.9-3.8,8.8-5.6c0.2-0.1,0.3-0.3,0.2-0.5c-1.9-3.2-4.3-5.9-7.7-7.5
			c-4.7-2.2-9.7-2.4-14.7-1.3c-7.7,1.7-12.5,7.8-12.6,15.4c-0.1,6.3,2.5,11.3,7.7,14.8c2,1.4,4.2,2.5,6.5,3.5
			c2.5,1.1,5.1,2.1,7.5,3.3c1.2,0.6,2.4,1.3,3.3,2.3c1.4,1.5,1.9,3.3,1.4,5.2c-0.5,2.1-1.9,3.3-3.8,4c-4.5,1.5-8.7,1-12.5-2
			c-1.4-1.1-2.6-2.6-3.5-4.1c-0.3-0.4-0.4-0.5-0.9-0.2c-2.9,1.7-5.9,3.4-8.9,5.1c-0.4,0.2-0.5,0.4-0.3,0.8c1.8,3.3,4.2,6,7.4,8
			C-589.5-1177.5-584.6-1176.5-579.4-1176.4z M-608.3-1214.4C-608.3-1214.4-608.3-1214.4-608.3-1214.4c0-7.1,0-14.2,0-21.3
			c0-0.9,0.1-0.8-0.8-0.8c-3.5,0-7.1,0-10.6,0c-0.6,0-0.8,0.1-0.8,0.8c0,13.4,0,26.9,0,40.3c0,1.1,0,2.1-0.2,3.2
			c-0.3,1.8-1,3.4-2.7,4.2c-2.3,1.1-6.4,1.3-8.9-1.7c-0.9-1.1-1.6-2.2-2.3-3.4c-0.2-0.3-0.3-0.4-0.6-0.2c-3,1.8-6.1,3.7-9.1,5.5
			c-0.3,0.2-0.4,0.4-0.2,0.7c2.2,4.3,5.4,7.6,10,9.3c5.4,2,10.8,2,16.2,0.1c3.9-1.4,6.7-4.1,8.4-7.9c1.1-2.6,1.7-5.4,1.7-8.2
			C-608.3-1200.7-608.3-1207.6-608.3-1214.4z"/>
		<path fill="#41423F" d="M-579.4-1176.4c-5.2,0-10.1-1.1-14.5-3.9c-3.2-2-5.6-4.7-7.4-8c-0.2-0.4-0.2-0.6,0.3-0.8
			c3-1.7,5.9-3.4,8.9-5.1c0.5-0.3,0.6-0.2,0.9,0.2c1,1.5,2.1,3,3.5,4.1c3.8,3,8,3.5,12.5,2c1.9-0.6,3.3-1.9,3.8-4
			c0.4-2,0-3.8-1.4-5.2c-0.9-1-2.1-1.6-3.3-2.3c-2.4-1.2-5-2.2-7.5-3.3c-2.2-1-4.4-2.1-6.5-3.5c-5.3-3.5-7.8-8.5-7.7-14.8
			c0.1-7.7,4.9-13.7,12.6-15.4c5-1.1,10-0.9,14.7,1.3c3.4,1.6,5.8,4.3,7.7,7.5c0.2,0.3,0.1,0.4-0.2,0.5c-2.9,1.9-5.9,3.8-8.8,5.6
			c-0.3,0.2-0.4,0.2-0.6-0.1c-0.6-1-1.2-2-2.1-2.7c-2.3-2.1-5.1-2.7-8-1.7c-4.2,1.4-4.1,6.6-2,8.7c0.9,0.9,2.1,1.6,3.2,2.2
			c2.5,1.2,5.1,2.2,7.6,3.4c3,1.4,5.8,2.9,8.4,4.9c3.8,3.1,5.8,7.1,6.1,12c0.2,3.4-0.3,6.7-2,9.8c-2.1,3.8-5.5,6-9.5,7.4
			C-573.5-1176.8-576.4-1176.5-579.4-1176.4z"/>
		<path fill="#41423F" d="M-608.3-1214.4c0,6.8,0,13.7,0,20.5c0,2.8-0.5,5.6-1.7,8.2c-1.7,3.8-4.5,6.5-8.4,7.9
			c-5.4,1.9-10.8,1.9-16.2-0.1c-4.6-1.7-7.8-5-10-9.3c-0.2-0.4-0.1-0.5,0.2-0.7c3-1.8,6.1-3.7,9.1-5.5c0.3-0.2,0.5-0.2,0.6,0.2
			c0.7,1.2,1.4,2.4,2.3,3.4c2.5,3,6.6,2.8,8.9,1.7c1.7-0.8,2.4-2.4,2.7-4.2c0.2-1.1,0.2-2.1,0.2-3.2c0-13.4,0-26.9,0-40.3
			c0-0.6,0.2-0.8,0.8-0.8c3.5,0,7.1,0,10.6,0c0.9,0,0.8-0.1,0.8,0.8C-608.3-1228.6-608.3-1221.5-608.3-1214.4
			C-608.3-1214.4-608.3-1214.4-608.3-1214.4z"/>
	</g>
</g>
<g id="Le6tSy.tif">
	<g>
		<path fill="#46535B" d="M-1101.7,254.9c1.5,0,3,0,4.5,0c2.2,0.2,4.4,0.4,6.6,0.7c15.4,2.1,28.5,8.8,39.3,20
			c9.2,9.6,15,21,17.4,34.1c0.4,2.3,0.7,4.7,1,7c0,3.3,0,6.7,0,10c-0.1,0.3-0.2,0.6-0.3,1c-1.8,19-10.5,34.2-25.1,46.2
			c-6.1,5-13.2,8.5-20.7,11c-0.4,0-0.8,0-1.2,0c-2.1-0.7-2.8-2.2-2.7-4.3c0-5.9,0-11.8,0-17.7c0-4.4-0.9-8.5-4.4-11.9
			c0.7-0.1,1.1-0.2,1.6-0.3c3.5-0.8,7.2-1.3,10.5-2.5c6.1-2.2,11.3-5.8,14.3-11.9c2-4,3.1-8.3,3.6-12.8c0.9-8.3-0.3-16.1-6.1-22.7
			c-0.3-0.3-0.4-0.9-0.2-1.3c1.6-4.6,1.4-9.2,0.1-13.8c-1-3.5-1.5-3.8-5.1-3.1c-0.1,0-0.2,0.1-0.3,0.1c-4.6,1.2-8.8,3.4-12.8,6
			c-0.6,0.4-1.5,0.6-2.2,0.4c-10.4-2.6-20.8-2.6-31.2,0c-0.6,0.1-1.4-0.1-1.9-0.3c-3.8-1.8-7.4-3.8-11.3-5.4
			c-1.6-0.7-3.4-0.7-5.2-0.9c-0.4,0-1.1,0.4-1.2,0.8c-1.9,5.1-2.7,10.4-0.8,15.7c0.3,1,0.2,1.6-0.5,2.4c-2.3,2.6-3.9,5.6-4.9,9
			c-1.5,5.2-1.3,10.5-0.5,15.8c0.9,5.3,2.5,10.4,6.1,14.6c4.4,5.1,10.2,7.7,16.5,9.1c2.2,0.5,4.4,0.8,6.6,1.2
			c-0.8,1.3-1.8,2.5-2.4,3.9c-0.6,1.4-0.9,2.9-1.3,4.3c-0.1,0.4-0.5,0.8-0.8,0.9c-7.3,2.7-13.5,2.1-18-4.9c-0.9-1.4-1.9-2.9-3.1-4
			c-2.6-2.4-5.5-4.2-9.2-3.6c-1.5,0.2-1.8,0.8-0.9,2c0.6,0.8,1.5,1.4,2.2,2c1.1,1,2.5,1.7,3.2,2.9c1.6,2.3,2.7,4.9,4.2,7.3
			c1,1.6,2,3.2,3.3,4.4c3.1,2.8,7.1,3.3,11,3.4c2.6,0.1,5.2-0.2,7.9-0.3c0,3.7-0.1,7.5,0,11.3c0,2.1-0.7,3.6-2.8,4.3
			c-0.4,0-0.8,0-1.2,0c-0.1-0.1-0.2-0.2-0.4-0.2c-24.2-8.6-38.9-25.5-44.5-50.4c-0.6-2.5-0.8-5-1.2-7.5c0-3.3,0-6.7,0-10
			c0.1-0.5,0.2-1,0.3-1.4c0.7-4.1,1.2-8.2,2.3-12.2c4.4-15.2,13.2-27.3,26.1-36.4c9.1-6.3,19.2-10.2,30.3-11.3
			C-1105.2,255.3-1103.4,255.1-1101.7,254.9z"/>
	</g>
</g>
<g>
	<g id="Dbre3c.tif">
		<g>
			<path fill="#FED237" d="M-1333.6,297.5c0.9-0.2,1.3-1,1.9-1.6c4.4-4.4,8.8-8.7,13.1-13.1c1-1,2.2-1.7,3.7-1.3
				c1.4,0.5,1.8,1.6,2,3c1.5,9.9,3.3,19.6,4.6,29.5c1.2,9.1,3.1,18.1,4.6,27.2c0.9,5.1,1.5,10.3,2.6,15.3c0.6,2.9-1,3.9-2.9,5
				c-7.1,4-14.3,7.9-21.4,11.8c-6.1,3.4-12.2,6.7-18.2,10.1c-3.3,1.8-6.5,1.8-9.8,0c-13.7-7.6-27.4-15.3-41.1-22.9
				c-0.6-0.3-1.8-0.5-1.3-1.7c0.8-0.1,1.3-0.8,1.8-1.3c11.1-11.1,22.2-22.2,33.3-33.3c4.7-4.7,9.3-9.7,14.3-14.2
				C-1341.9,306-1337.7,301.8-1333.6,297.5z"/>
			<path fill="#FEB518" d="M-1333.6,297.5c-4.1,4.3-8.3,8.5-12.7,12.5c-4.9,4.5-9.5,9.4-14.3,14.2c-11.1,11.1-22.2,22.2-33.3,33.3
				c-0.5,0.5-1,1.2-1.8,1.3c2.5-15.9,5-31.7,7.5-47.6c2.4-15,4.7-30.1,7-45.1c0.4-2.9,0.9-5.7,1.4-8.6c0.2-1.4,1-2.4,2.4-2.7
				c1.5-0.3,2.5,0.4,3.2,1.7c2.9,5.6,6,11.1,8.9,16.7c1.7,3.5,3.8,6.9,5.8,10.3c0.7,1.2,0.6,2.7,2.1,3.7c1.7-3.3,3.5-6.5,5.2-9.8
				c0.4-0.7,0.8-1.5,1.2-2.2c1.7-2.9,4.1-3,5.7,0c2.3,4.3,4.6,8.6,6.9,12.9C-1336.9,291.3-1335.2,294.4-1333.6,297.5z"/>
		</g>
	</g>
	<polygon fill="#F79305" points="-1395.7,358.8 -1357.5,287.3 -1346.3,310 	"/>
</g>
<g>
	<g>
		<rect x="-1122.5" y="-466.7" fill="#542016" width="127.6" height="119.4"/>
		<path fill="#FE902D" d="M-989.7-342h-138.2v-130h138.2V-342z M-1117.2-352.7h117v-108.8h-117V-352.7z"/>
	</g>
	<g>
		<g>
			<path fill="#FE902D" d="M-1069.5-437.5c1.8,0,3.7,0,5.5,0c0.9,0,0.9,0,1.1,0.9c3.5,11.8,7,23.6,10.4,35.4
				c2.5,8.4,4.9,16.7,7.4,25.1c0,0.2,0.1,0.3,0.1,0.5c0.1,0.4-0.1,0.6-0.5,0.6c-0.1,0-0.1,0-0.2,0c-3,0-6.1,0-9.1,0
				c-0.6,0-0.9-0.2-1.1-0.8c-1.5-5.4-3-10.8-4.4-16.2c-0.1-0.4-0.3-0.5-0.7-0.5c-5.7,0-11.3,0-17,0c-0.5,0-0.6,0.2-0.7,0.6
				c-1.4,5.3-2.8,10.7-4.2,16c-0.2,0.9-0.3,1-1.2,1c-2.5,0-5.1,0-7.6,0c-1,0-1.2-0.2-0.9-1.2c1.3-4.5,2.5-8.9,3.8-13.4
				c4-14.1,8.1-28.3,12.1-42.4c0.4-1.6,0.5-3.2,0.6-4.8c0-0.6,0.2-0.8,0.8-0.8C-1073.3-437.5-1071.4-437.5-1069.5-437.5z
				 M-1069.5-428.4c-0.2,0.9-0.4,1.8-0.5,2.7c-1.7,7.8-3.8,15.6-5.9,23.3c-0.2,0.7-0.2,0.7,0.5,0.7c4,0,7.9,0,11.9,0
				c1,0,0.8,0.1,0.6-0.8c-2.1-8.2-4.3-16.3-6.2-24.5C-1069.2-427.5-1069.2-428-1069.5-428.4z"/>
		</g>
		<g>
			<path fill="#FE902D" d="M-1036.4-398.1c0-7.2,0-14.4,0-21.6c0-1.3,0-1.3,1.4-1.3c2.6,0,5.3,0,7.9,0c0.8,0,0.9,0.1,0.9,0.9
				c0,14.7,0,29.5,0,44.2c0,0.8-0.1,0.9-0.9,0.9c-2.8,0-5.5,0-8.3,0c-0.8,0-1-0.2-1-1C-1036.4-383.4-1036.4-390.8-1036.4-398.1z"/>
		</g>
		<g>
			<path fill="#FE902D" d="M-1031.4-427.5c-3.4,0.1-5.7-2.1-5.8-5.7c-0.1-3.4,2.2-5.8,5.7-5.9c3.4-0.1,5.8,2.2,5.9,5.7
				C-1025.5-429.8-1027.8-427.6-1031.4-427.5z"/>
		</g>
	</g>
</g>
<g id="pyI42I.tif">
	<g>
		<path fill="#70E0FB" d="M-1638.5,362.5c0.1-5.7,1-11.5,2.4-17.3c0.2-0.7,0-0.9-0.6-1.1c-5.3-1.5-10.5-3.5-15.3-6.1
			c-4.3-2.3-8.2-5.1-11.2-9.1c-4.2-5.8-4.2-12.5,0.1-18.2c2.8-3.7,6.4-6.3,10.3-8.5c5.1-2.9,10.5-4.9,16-6.5
			c0.7-0.2,0.8-0.5,0.6-1.1c-1.1-4.8-2-9.6-2.3-14.6c-0.3-5,0-10,1.7-14.7c1.5-4,3.9-7.3,7.9-9.1c3.6-1.6,7.3-1.6,11.1-0.7
			c5.3,1.3,9.8,4,14.2,7.1c3.3,2.4,6.5,5,9.4,7.9c0.5,0.5,0.7,0.4,1.1,0c4.2-4,8.6-7.7,13.7-10.7c3.6-2.1,7.3-3.9,11.4-4.6
			c5.3-0.9,10.2,0.1,14,4.2c2.4,2.5,3.6,5.7,4.4,9c0.8,3.6,1,7.2,0.8,10.9c-0.3,5.2-1.1,10.3-2.4,15.3c-0.2,0.6-0.1,0.9,0.6,1
			c5,1.4,9.9,3.2,14.5,5.7c3.8,2,7.3,4.3,10.2,7.4c2.4,2.5,4.2,5.4,4.7,8.9c0.6,4.1-0.4,7.7-2.8,11c-2.6,3.7-6.2,6.4-10.1,8.6
			c-5.1,3-10.6,5.1-16.2,6.7c-1.2,0.3-1.2,0.3-0.9,1.5c1.1,4.7,1.9,9.4,2.2,14.2c0.3,4.9,0,9.7-1.5,14.4c-1.2,3.5-3.1,6.6-6.4,8.6
			c-3,1.9-6.3,2.5-9.8,2.1c-6-0.7-11.2-3.5-16.1-6.9c-3.7-2.5-7.2-5.5-10.4-8.6c-0.4-0.4-0.7-0.3-1.1,0c-3.7,3.5-7.6,6.8-11.8,9.5
			c-3.9,2.5-8,4.6-12.6,5.6c-4.5,0.9-8.8,0.5-12.6-2.2c-3.2-2.3-4.9-5.5-6-9.1C-1638.2,369.7-1638.5,366.2-1638.5,362.5z
			 M-1592.7,343.5c3.2,0.1,7.3-0.1,11.4-0.4c0.7,0,1-0.3,1.4-0.8c4.6-6.8,8.7-14,12.4-21.3c0.4-0.8,0.4-1.5,0-2.3
			c-1.5-2.9-3-5.8-4.5-8.6c-2.5-4.4-5.1-8.7-7.9-12.9c-0.2-0.3-0.4-0.5-0.9-0.5c-3.7-0.3-7.4-0.4-11-0.5c-4.6-0.1-9.2,0.1-13.8,0.4
			c-1,0.1-1.5,0.4-2,1.2c-4.6,6.9-8.7,14-12.3,21.4c-0.2,0.5-0.3,0.9,0,1.4c1.5,3,3,6,4.7,9c2.5,4.4,5.2,8.8,8,13
			c0.2,0.3,0.4,0.5,0.9,0.5c0.9,0,1.7,0.1,2.6,0.2C-1600.4,343.5-1597,343.5-1592.7,343.5z M-1632.4,362.6c0,1.9,0.1,3.6,0.3,5.3
			c0.3,2.3,0.9,4.5,2,6.5c1.4,2.4,3.3,3.9,6.1,4.2c2.6,0.3,5-0.3,7.4-1.2c7.1-2.8,12.7-7.6,18.1-12.7c0.4-0.3,0.3-0.6,0-0.9
			c-4.2-4.5-8-9.3-11.6-14.3c-0.3-0.4-0.6-0.6-1.1-0.6c-1.6-0.1-3.2-0.3-4.8-0.5c-4.5-0.6-9.1-1.3-13.5-2.4
			c-0.4-0.1-0.6-0.1-0.7,0.4C-1631.4,351.8-1632.2,357.2-1632.4,362.6z M-1554.9,362.9c0-0.8-0.1-1.7-0.1-2.5
			c-0.2-4.7-1.1-9.3-2.1-13.8c-0.1-0.6-0.3-0.7-0.9-0.5c-5.7,1.3-11.4,2.2-17.3,2.7c-1,0.1-1.8,0.3-2.5,1.3
			c-3.3,4.7-6.9,9.1-10.8,13.4c-0.8,0.9-1,0.7,0.1,1.7c3,2.8,6.1,5.5,9.5,7.8c3.7,2.5,7.5,4.7,11.9,5.5c2.6,0.5,5.1,0.3,7.3-1.3
			c1.7-1.2,2.6-2.9,3.4-4.7C-1555.2,369.4-1555,366.1-1554.9,362.9z M-1634.5,301.4c-0.1,0-0.2,0.1-0.3,0.1
			c-5.5,1.6-10.8,3.6-15.8,6.5c-2.9,1.7-5.5,3.7-7.6,6.4c-2.7,3.5-2.7,7.2-0.1,10.8c1.8,2.5,4.1,4.3,6.6,5.9
			c5.2,3.3,10.9,5.4,16.7,7.1c0.5,0.1,0.7,0.1,0.9-0.4c1.8-5.9,4-11.5,6.6-17.1c0.3-0.6,0.2-1.1,0-1.6c-1.6-3.4-3-6.9-4.3-10.5
			c-0.8-2.2-1.5-4.3-2.2-6.5C-1634.2,301.8-1634.1,301.4-1634.5,301.4z M-1632.4,277.1c0.1,1.4,0.2,3.1,0.3,4.8
			c0.3,3.9,1.1,7.7,2,11.4c0.1,0.5,0.3,0.5,0.7,0.4c2.2-0.5,4.3-0.9,6.5-1.3c3.9-0.7,7.9-1.2,11.8-1.6c0.5,0,0.7-0.2,1-0.6
			c3.6-5,7.4-9.8,11.6-14.3c0.4-0.5,0.3-0.7-0.1-1.1c-3.8-3.6-7.8-7-12.3-9.7c-3.2-1.9-6.5-3.5-10.3-4c-4.2-0.6-7.7,1.3-9.4,5.3
			C-1632,269.7-1632.2,273.2-1632.4,277.1z M-1527.1,320c0-1.8-0.5-3.2-1.4-4.6c-1.9-3-4.6-5.1-7.6-6.9c-5-3.1-10.4-5.1-16-6.8
			c-0.7-0.2-1-0.1-1.2,0.6c-1.7,5.6-3.9,11.1-6.3,16.5c-0.4,0.8-0.3,1.5,0,2.2c2.5,5.4,4.6,11,6.4,16.6c0.2,0.5,0.3,0.7,0.9,0.5
			c4.7-1.4,9.3-3.1,13.6-5.4c3.2-1.7,6.2-3.6,8.6-6.3C-1528.3,324.6-1527.1,322.5-1527.1,320z M-1554.9,276.6
			c0.1-0.7-0.1-1.6-0.1-2.5c-0.1-2.7-0.6-5.3-1.7-7.7c-1.5-3.5-4.3-5.3-8.1-5.3c-2.8,0-5.4,0.9-7.9,2.1c-6.1,2.9-11.3,7.2-16.1,11.8
			c-0.4,0.3-0.4,0.6,0,0.9c4.2,4.5,8,9.3,11.6,14.3c0.3,0.4,0.7,0.6,1.2,0.6c2.1,0.2,4.2,0.4,6.3,0.7c4,0.5,8,1.3,11.9,2.1
			c0.4,0.1,0.6,0,0.7-0.4C-1555.8,287.9-1555,282.4-1554.9,276.6z M-1615,297.6c-0.1,0-0.2-0.1-0.2-0.1c-4.2,0.6-8.3,1.2-12.4,2.1
			c-0.5,0.1-0.7,0.3-0.5,0.8c0.9,2.9,2,5.8,3.1,8.6c0.4,1.1,0.8,2.2,1.5,3.4C-1620.9,307.3-1618,302.4-1615,297.6z M-1572.2,342
			c0.3,0.2,0.6,0.1,0.8,0.1c4-0.5,7.9-1.2,11.8-2c0.6-0.1,0.5-0.4,0.4-0.8c-1-3.2-2.2-6.4-3.5-9.6c-0.3-0.8-0.5-1.6-1.1-2.4
			C-1566.3,332.4-1569.2,337.2-1572.2,342z M-1572.3,297.5c3.2,4.9,5.9,9.8,8.7,15c0.2-0.3,0.2-0.4,0.3-0.5c1.6-3.8,3-7.6,4.3-11.5
			c0.2-0.6-0.1-0.7-0.5-0.7C-1563.8,298.8-1568,298.1-1572.3,297.5z M-1615,342.1c-3.1-4.9-5.9-9.8-8.6-14.9
			c-0.1,0.3-0.2,0.4-0.3,0.6c-1.5,3.7-2.9,7.5-4.2,11.3c-0.2,0.7,0,0.9,0.6,1c2.6,0.5,5.3,1,7.9,1.5
			C-1618.1,341.8-1616.7,342.1-1615,342.1z M-1585.2,290.2c0-0.2,0-0.3-0.1-0.3c-2.5-3.3-5.1-6.5-7.9-9.5c-0.4-0.4-0.6-0.4-1,0
			c-1.9,2.1-3.7,4.2-5.5,6.4c-0.8,1-1.7,2.1-2.6,3.4C-1596.4,289.9-1590.8,290-1585.2,290.2z M-1602.1,349.5
			c0.1,0.2,0.1,0.4,0.2,0.4c2.5,3.3,5.1,6.4,7.9,9.4c0.4,0.4,0.6,0.3,0.9-0.1c2.1-2.3,4.1-4.7,6-7.1c0.7-0.8,1.4-1.6,2-2.7
			C-1590.8,349.8-1596.4,349.8-1602.1,349.5z"/>
		<path fill="#70E0FB" d="M-1580.6,319.9c0,7.2-5.8,13.1-13,13c-7.4-0.1-13-6.2-13-13.1c0.1-7.2,5.8-13,13.1-13
			C-1586.4,306.8-1580.5,312.9-1580.6,319.9z"/>
	</g>
</g>
<g>
	
		<text transform="matrix(1 0 0 1 -1581.4144 248.6447)" fill="#3F4854" font-family="'Lato-Regular'" font-size="11.4379" letter-spacing="1">FIREBASE</text>
</g>
<g>
	
		<text transform="matrix(1 0 0 1 -1713.8765 248.6447)" fill="#3F4854" font-family="'Lato-Regular'" font-size="11.4379" letter-spacing="1">REACT JS</text>
</g>
<g>
	
		<text transform="matrix(1 0 0 1 -1846.3396 248.6447)" fill="#3F4854" font-family="'Lato-Regular'" font-size="11.4379" letter-spacing="1">REST API</text>
</g>
<g>
	
		<text transform="matrix(1 0 0 1 -1444.4263 248.6447)" fill="#3F4854" font-family="'Lato-Regular'" font-size="11.4379" letter-spacing="1">GITHUB</text>
</g>
<g>
	
		<text transform="matrix(1 0 0 1 -1328.9948 248.6447)" fill="#3F4854" font-family="'Lato-Regular'" font-size="11.4379" letter-spacing="1">ILLUSTRATOR</text>
</g>
<g>
	<g id="VjEJ2S.tif_1_">
		<g>
			<g>
				<path fill="#46535B" d="M-1776.8,317.6c-0.1-7.8-1.9-15.3-4.8-22.5c-2.3-5.8-5.6-11.2-9.5-16.1c-3-3.7-6.3-7-10.1-10
					c-3.6-2.8-7.4-5.3-11.5-7.4c-5.8-2.9-11.8-4.9-18.2-5.9c-1.9-0.3-3.9-0.5-5.9-0.7c-0.2,0-0.4-0.1-0.5-0.2c-3,0-5.9,0-8.9,0
					c-0.8,0.1-1.5,0.3-2.3,0.4c-3.9,0.3-7.7,1-11.3,2.2c-2.8,0.9-5.6,1.8-8.3,3c-5.3,2.3-10.2,5.2-14.6,8.9c-2.6,2.2-5,4.5-7.3,6.9
					c-3.6,3.9-6.5,8.2-9,12.8c-2.6,4.9-4.6,10-5.9,15.4c-0.6,2.6-0.9,5.3-1.4,8c-0.1,0.9-0.3,1.8-0.4,2.7c0,3.2,0,6.3,0,9.5
					c0.1,0.8,0.3,1.6,0.4,2.4c0.6,6.4,2.3,12.5,4.7,18.4c2.2,5.2,5,10.1,8.6,14.5c2.1,2.5,4.2,5,6.5,7.2c3.8,3.7,8.1,6.8,12.7,9.3
					c3.9,2.2,7.9,4,12.1,5.3c3.5,1.1,7.1,2.1,10.9,2.4c3.3,0.3,6.7,0.7,10,0.7c4.3,0,8.6-0.5,12.8-1.4c6.2-1.3,12.1-3.6,17.7-6.6
					c3.8-2.1,7.3-4.5,10.5-7.3c1.7-1.5,3.4-3,4.9-4.6c3.4-3.5,6.3-7.4,8.8-11.6c2.3-3.8,4.2-7.9,5.6-12.1c1.4-4,2.4-8.1,2.9-12.3
					c0.2-2.2,0.4-4.5,0.6-6.7c0-0.2,0.2-0.5,0.2-0.7c0-1,0-2,0-3C-1776.6,318.1-1776.8,317.9-1776.8,317.6z M-1878.3,306.6
					c-0.7,0-1.3,0-2,0c-1.9,0-2.8,0.8-2.9,2.7c-0.1,2,0,4-0.1,6c0,0.6,0,1.2,0,1.8c-0.1,1.4-0.3,2.7-1.7,3.5
					c1.3,0.8,1.7,1.9,1.7,3.2c0,2.3,0,4.7,0,7c0,0.5,0,1,0.1,1.5c0.2,1.3,1.1,2.1,2.4,2.2c0.8,0,1.5,0,2.4,0c0,1.2,0,2.3,0,3.4
					c-4.9,0.8-8.6-1.6-8.7-6.6c0-2.1,0-4.2,0-6.3c0-0.7-0.3-1.4-0.5-2.1c0-0.2-0.2-0.4-0.4-0.4c-1.6-0.3-1.2-1.5-1.2-2.6
					c0-0.2,0-0.4,0-0.7c1.9-0.3,2.1-1.7,2.1-3.2c0-2.3-0.1-4.7,0.1-7c0.3-3.6,2.7-5.6,6.3-5.8c0.7,0,1.5,0,2.3,0
					C-1878.3,304.3-1878.3,305.4-1878.3,306.6z M-1850.1,332.1c-1.7,0-3.3,0-5.1,0c0-0.6-0.1-1.1-0.1-1.8c-1.5,1.4-3.2,2.1-5,2.3
					c-4.6,0.5-8.6-2.9-7.6-7.9c0.5-2.5,2.5-4.3,5.3-4.7c2.7-0.3,5.2,0.1,7.2,1.9c0.6-3.1,0.1-4.9-3.1-5.4c-2.1-0.3-4.1,0.3-5.8,1.6
					c-0.2,0.2-0.5,0.4-0.8,0.6c-0.6-1.1-1.3-2.2-1.9-3.4c1.1-1,2.3-1.7,3.6-2.2c2.9-1.1,5.8-1.2,8.7-0.3c2.7,0.9,4.4,2.8,4.5,5.6
					C-1850,323-1850.1,327.5-1850.1,332.1z M-1826.2,327.3c-2.2,6-9.8,7.1-13.7,2.6c0,3.3,0,6.4,0,9.6c-1.8,0-3.5,0-5.2,0
					c0-8.9,0-17.8,0-26.7c1.7,0,3.3,0,5.1,0c0,0.7,0,1.4,0,2.2c0.2-0.1,0.4-0.2,0.4-0.3c3.5-4,11-3.1,13.3,2.8
					C-1825,320.7-1825,324-1826.2,327.3z M-1816.6,332.1c-1.7,0-3.3,0-5,0c0-6.4,0-12.9,0-19.4c1.7,0,3.4,0,5,0
					C-1816.6,319.2-1816.6,325.6-1816.6,332.1z M-1819.1,310.7c-1.7,0-3.1-1.4-3.1-3.1c0-1.7,1.4-3,3.1-3c1.7,0,3.1,1.3,3,3
					C-1816.1,309.3-1817.4,310.7-1819.1,310.7z M-1794.2,322c-1.5,0.2-2,1.3-2,2.6c0,2.2,0,4.3,0,6.5c0,2.2-0.6,4.3-2.5,5.6
					c-0.9,0.6-2,1-3,1.2c-1,0.2-2,0-3.1,0c0-1.1,0-2.2,0-3.4c0.6,0,1.2,0,1.8,0c2.1,0,3-0.9,3.1-3c0.1-2.2,0-4.5,0-6.7
					c0-0.6,0-1.1,0.1-1.7c0.1-1.1,0.5-1.7,1.6-2.6c-1.6-1-1.7-2.7-1.7-4.3c0-2.1,0-4.1,0-6.2c0-0.5,0-1-0.1-1.4
					c-0.2-1.2-1.1-2-2.4-2.1c-0.8,0-1.5,0-2.4,0c0-1.2,0-2.3,0-3.4c3.8-0.5,6.5,0.5,7.9,3.4c0.5,1.1,0.6,2.4,0.7,3.6
					c0.1,2.2,0,4.4,0.1,6.6c0,1.4,0.5,1.9,2,2.4C-1794.2,320.1-1794.2,321-1794.2,322z"/>
				<path fill="#46535B" d="M-1839.9,322.4c0-0.8,0.1-1.7,0-2.5c-0.1-0.8,0.3-1.4,0.9-1.8c1.8-1.3,3.7-1.8,5.7-0.7
					c2.1,1.1,2.7,3.1,2.6,5.3c0,1.2-0.3,2.4-1,3.4c-1.9,2.8-5.8,2.5-7.9,0.1c-0.2-0.2-0.2-0.5-0.2-0.8
					C-1839.9,324.4-1839.9,323.4-1839.9,322.4z"/>
				<path fill="#46535B" d="M-1855.3,326.2c0.4,1.3-0.4,1.9-1.4,2.3c-1.6,0.7-3.3,0.9-4.9,0c-1.8-1-1.8-3.4-0.1-4.5
					c1.6-1,4.6-0.8,5.9,0.5c0.4,0.4,0.5,1,0.7,1.6C-1855.1,326.2-1855.2,326.2-1855.3,326.2z"/>
			</g>
		</g>
	</g>
</g>
<g id="_x34_Sr4SB.tif_2_">
	<g>
		<g>
			<path fill="#EC6431" d="M-1155.4,481.5c38.3,0,76.4,0,114.9,0c-0.8,9.3-1.6,18.3-2.4,27.4c-2.3,25.9-4.6,51.8-6.9,77.7
				c-0.1,1.2-0.6,2.4-0.4,3.5c1.2,7.8-3.2,10-9.9,11.5c-11.8,2.7-23.4,6.4-35.1,9.5c-1.8,0.5-3.9,0.5-5.7,0
				c-13.8-3.7-27.6-7.7-41.5-11.4c-2.2-0.6-2.9-1.7-3.1-3.7c-1.8-21.3-3.7-42.7-5.6-64c-1.4-15.9-2.8-31.7-4.2-47.6
				C-1155.3,483.5-1155.3,482.6-1155.4,481.5z M-1118.3,519.8c2.7,0,4.6,0,6.5,0c15,0.1,30.1,0.3,45.1,0.4c1.8,0,3.9,0.4,4.1-2.3
				c0.3-4.1,0.7-8.2,1.1-12.3c-24.5,0-48.5,0-72.7,0c1.3,14.7,2.6,29,3.9,43.8c16.8,0,33.2,0,49.7,0c-0.5,5.9-0.9,11.3-1.6,16.6
				c-0.1,0.7-1,1.8-1.8,2c-8.2,2.4-16.4,5.4-25,1.2c-0.5-0.2-1-0.3-1.5-0.4c-2.7-0.3-4.1-1.5-4-4.5c0.1-2.7-0.5-5.4-0.9-8.3
				c-4.8,0-9.4,0-14.5,0c0.6,7.3,1.2,14.5,2,21.6c0.1,0.9,1.9,1.9,3.1,2.3c8.1,2.4,16.3,4.7,24.5,6.9c1.6,0.4,3.4,0.4,5,0
				c8.1-2.1,16.1-4.5,24.1-6.6c2.4-0.6,3.3-1.9,3.4-4.4c0.6-8.1,1.4-16.1,2.1-24.2c0.5-5.7,0.8-11.3,1.3-17.3c-18,0-35.3,0-52.8,0
				C-1117.4,529.4-1117.8,524.9-1118.3,519.8z"/>
		</g>
	</g>
</g>
<g id="wJr9zT.tif_2_">
	<g>
		<path fill="#248DB8" d="M0,53.2c0.8-2.2,0.8-4.6,1.2-6.9c1.5-7.8,4.7-14.7,9.8-20.9c1.9-2.3,3.6-4.6,5.5-6.9
			c0.4,0.7,0,1.1-0.2,1.6c-3.8,9.2-4.6,18.7-3.4,28.4c1.7,13.9,7.5,26,16.5,36.7c11,13,24.8,21.8,41.3,26.2c4.2,1.1,8.5,2,12.9,2
			c4,0.1,8,0.2,12,0.1c3.8-0.1,7.6-1.2,11.4-2.2c10.5-2.7,19.5-7.9,26.6-16.1c0.2-0.2,0.3-0.6,0.9-0.6c-1.1,2.7-2.5,5.1-4.1,7.4
			c-8.1,11.7-18.7,20.2-32.3,24.6c-6.2,2-12.6,3.1-19.2,3.3c-6.6,0.2-13.2-0.1-19.7-1.5c-6.6-1.4-12.8-4-18.7-7.3
			C22,110.7,9.2,95.6,2.9,75.2c-1.3-4.3-2-8.7-2.6-13.2c0-0.3,0.1-0.7-0.3-0.9C0,58.5,0,55.9,0,53.2z"/>
		<path fill="#248DB8" d="M51.7,7.1c-1,3.1-1.9,5.9-2.4,8.8c-1.2,6.5-0.8,13,1.2,19.2c6.3,19.5,19.7,31.9,39.1,38
			c2.3,0.7,4.6,1.2,6.9,1.9c1.4,0.4,2.9,0.1,4.3,0.1c3.3,0.1,6.7,0.5,10-0.1c3.6-0.7,7.2-1.5,10.6-3c5.5-2.4,10.4-5.6,14.5-10.1
			c0.4-0.4,0.7-1,1.4-1.1c0.3,0.6-0.2,1-0.4,1.4c-6.4,12.5-16.5,20.3-30.2,23.3c-8.1,1.8-16.2,1.8-24.2,0.1
			c-7.6-1.6-14.4-5.1-20.5-9.8c-9-6.8-15.5-15.5-19.1-26.2c-1.7-5.1-2.6-10.4-2.4-15.8c0.4-8.7,3.2-16.6,8.6-23.4c0.8-1,1.4-2,2.1-3
			C51.2,7.3,51.3,7.3,51.7,7.1z"/>
		<path fill="#248DB8" d="M133.1,35.6c-2.9,5-6.8,8.7-12,11c-5.8,2.6-12,3.1-18.1,1.8c-13.9-2.9-23.4-11.1-27.4-24.8
			C73.1,14.9,75.1,7,81,0c-0.3,1.4-0.8,2.9-1,4.3c-1.1,6.8,0.6,13.1,4,19c5.7,9.9,14.3,15.7,25.5,18c3.7,0.8,7.5,0.9,11.1,0.4
			c4-0.6,8-2.2,11.1-5.2C132.1,36.1,132.3,35.7,133.1,35.6z"/>
	</g>
</g>
<path fill="none" stroke="#A8A8A8" stroke-miterlimit="10" d="M-1384-640.9"/>
</svg>
