<?xml version="1.0" encoding="utf-8"?>
<!-- Generator: Adobe Illustrator 18.0.0, SVG Export Plug-In . SVG Version: 6.00 Build 0)  -->
<!DOCTYPE svg PUBLIC "-//W3C//DTD SVG 1.1//EN" "http://www.w3.org/Graphics/SVG/1.1/DTD/svg11.dtd">
<svg version="1.1" id="Layer_1" xmlns="http://www.w3.org/2000/svg" xmlns:xlink="http://www.w3.org/1999/xlink" x="0px" y="0px"
	 viewBox="0 0 778.1 234.4" enable-background="new 0 0 778.1 234.4" xml:space="preserve">
<g>
	<g>
		<path fill="#5D626B" d="M398,145.8V158h-46.4V78.8h14.7v67H398z"/>
		<path fill="#5D626B" d="M434.3,158h-14.8V78.8h14.8V158z"/>
		<path fill="#5D626B" d="M530.8,78.8l-32,79.2h-13.3l-32-79.2h11.8c1.3,0,2.3,0.3,3.1,0.9c0.8,0.6,1.4,1.4,1.8,2.4l18.7,48.3
			c0.6,1.6,1.2,3.3,1.8,5.2c0.6,1.9,1.1,3.8,1.6,5.9c0.4-2,0.9-4,1.4-5.9c0.5-1.9,1.1-3.6,1.7-5.2L514,82.1c0.3-0.8,0.9-1.6,1.7-2.3
			c0.9-0.7,1.9-1,3.2-1H530.8z"/>
		<path fill="#5D626B" d="M564.7,90.5v22h27.7v11.3h-27.7v22.4h35.2V158h-49.9V78.8h49.9v11.7H564.7z"/>
	</g>
	<g id="border">
		<path fill="#5D626B" d="M721.3,234.4H56.8v-4c0-29.2-23.7-52.9-52.9-52.9H0V56.8h4c29.2,0,52.9-23.7,52.9-52.9V0h664.4v4
			c0,29.2,23.7,52.9,52.9,52.9h4v120.8h-4c-29.1,0-52.9,23.7-52.9,52.9V234.4z M64.6,226.5h648.8c2-30.4,26.3-54.8,56.7-56.7V64.6
			c-30.4-2-54.7-26.3-56.7-56.7H64.6c-2,30.4-26.3,54.8-56.7,56.7v105.2C38.3,171.8,62.7,196.1,64.6,226.5z"/>
	</g>
	<circle id="record" fill="#5D626B" cx="216" cy="121.8" r="36.2"/>
</g>
</svg>
