<?xml version="1.0" encoding="utf-8"?>
<!-- Generator: Adobe Illustrator 18.0.0, SVG Export Plug-In . SVG Version: 6.00 Build 0)  -->
<!DOCTYPE svg PUBLIC "-//W3C//DTD SVG 1.1//EN" "http://www.w3.org/Graphics/SVG/1.1/DTD/svg11.dtd">
<svg version="1.1" id="Layer_1" xmlns="http://www.w3.org/2000/svg" xmlns:xlink="http://www.w3.org/1999/xlink" x="0px" y="0px"
	 viewBox="0 0 49.2 14.8" enable-background="new 0 0 49.2 14.8" xml:space="preserve">
<g>
	<path fill="#5D626B" d="M25.2,9.2V10h-2.9V5h0.9v4.2H25.2z"/>
	<path fill="#5D626B" d="M27.5,10h-0.9V5h0.9V10z"/>
	<path fill="#5D626B" d="M33.6,5l-2,5h-0.8l-2-5h0.7c0.1,0,0.1,0,0.2,0.1s0.1,0.1,0.1,0.2L31,8.2c0,0.1,0.1,0.2,0.1,0.3
		c0,0.1,0.1,0.2,0.1,0.4c0-0.1,0.1-0.3,0.1-0.4c0-0.1,0.1-0.2,0.1-0.3l1.2-3.1c0-0.1,0.1-0.1,0.1-0.1C32.7,5,32.8,5,32.9,5H33.6z"/>
	<path fill="#5D626B" d="M35.8,5.7v1.4h1.8v0.7h-1.8v1.4H38V10h-3.2V5H38v0.7H35.8z"/>
</g>
<g>
	<path fill="#5D626B" d="M45.6,14.8h-42v-0.2c0-1.8-1.5-3.3-3.3-3.3H0V3.6h0.2c1.8,0,3.3-1.5,3.3-3.3V0h42v0.2
		c0,1.8,1.5,3.3,3.3,3.3h0.2v7.6h-0.2c-1.8,0-3.3,1.5-3.3,3.3V14.8z M4.1,14.3h41c0.1-1.9,1.7-3.5,3.6-3.6V4.1
		c-1.9-0.1-3.5-1.7-3.6-3.6h-41C4,2.4,2.4,4,0.5,4.1v6.6C2.4,10.9,4,12.4,4.1,14.3z"/>
</g>
<circle fill="#5D626B" cx="13.7" cy="7.7" r="2.3"/>
</svg>
