<?xml version="1.0" encoding="utf-8"?>
<!-- Generator: Adobe Illustrator 18.0.0, SVG Export Plug-In . SVG Version: 6.00 Build 0)  -->
<!DOCTYPE svg PUBLIC "-//W3C//DTD SVG 1.1//EN" "http://www.w3.org/Graphics/SVG/1.1/DTD/svg11.dtd">
<svg version="1.1" id="Layer_1" xmlns="http://www.w3.org/2000/svg" xmlns:xlink="http://www.w3.org/1999/xlink" x="0px" y="0px"
	 viewBox="0 0 145.5 130" enable-background="new 0 0 145.5 130" xml:space="preserve">
<g id="Le6tSy.tif">
	<g>
		<path fill="#46535B" d="M568.9,885.4c1.5,0,3,0,4.5,0c2.2,0.2,4.4,0.4,6.6,0.7c15.4,2.1,28.5,8.8,39.3,20c9.2,9.6,15,21,17.4,34.1
			c0.4,2.3,0.7,4.7,1,7c0,3.3,0,6.7,0,10c-0.1,0.3-0.2,0.6-0.3,1c-1.8,19-10.5,34.2-25.1,46.2c-6.1,5-13.2,8.5-20.7,11
			c-0.4,0-0.8,0-1.2,0c-2.1-0.7-2.8-2.2-2.7-4.3c0-5.9,0-11.8,0-17.7c0-4.4-0.9-8.5-4.4-11.9c0.7-0.1,1.1-0.2,1.6-0.3
			c3.5-0.8,7.2-1.3,10.5-2.5c6.1-2.2,11.3-5.8,14.3-11.9c2-4,3.1-8.3,3.6-12.8c0.9-8.3-0.3-16.1-6.1-22.7c-0.3-0.3-0.4-0.9-0.2-1.3
			c1.6-4.6,1.4-9.2,0.1-13.8c-1-3.5-1.5-3.8-5.1-3.1c-0.1,0-0.2,0.1-0.3,0.1c-4.6,1.2-8.8,3.4-12.8,6c-0.6,0.4-1.5,0.6-2.2,0.4
			c-10.4-2.6-20.8-2.6-31.2,0c-0.6,0.1-1.4-0.1-1.9-0.3c-3.8-1.8-7.4-3.8-11.3-5.4c-1.6-0.7-3.4-0.7-5.2-0.9c-0.4,0-1.1,0.4-1.2,0.8
			c-1.9,5.1-2.7,10.4-0.8,15.7c0.3,1,0.2,1.6-0.5,2.4c-2.3,2.6-3.9,5.6-4.9,9c-1.5,5.2-1.3,10.5-0.5,15.8c0.9,5.3,2.5,10.4,6.1,14.6
			c4.4,5.1,10.2,7.7,16.5,9.1c2.2,0.5,4.4,0.8,6.6,1.2c-0.8,1.3-1.8,2.5-2.4,3.9c-0.6,1.4-0.9,2.9-1.3,4.3c-0.1,0.4-0.5,0.8-0.8,0.9
			c-7.3,2.7-13.5,2.1-18-4.9c-0.9-1.4-1.9-2.9-3.1-4c-2.6-2.4-5.5-4.2-9.2-3.6c-1.5,0.2-1.8,0.8-0.9,2c0.6,0.8,1.5,1.4,2.2,2
			c1.1,1,2.5,1.7,3.2,2.9c1.6,2.3,2.7,4.9,4.2,7.3c1,1.6,2,3.2,3.3,4.4c3.1,2.8,7.1,3.3,11,3.4c2.6,0.1,5.2-0.2,7.9-0.3
			c0,3.7-0.1,7.5,0,11.3c0,2.1-0.7,3.6-2.8,4.3c-0.4,0-0.8,0-1.2,0c-0.1-0.1-0.2-0.2-0.4-0.2c-24.2-8.6-38.9-25.5-44.5-50.4
			c-0.6-2.5-0.8-5-1.2-7.5c0-3.3,0-6.7,0-10c0.1-0.5,0.2-1,0.3-1.4c0.7-4.1,1.2-8.2,2.3-12.2c4.4-15.2,13.2-27.3,26.1-36.4
			c9.1-6.3,19.2-10.2,30.3-11.3C565.5,885.8,567.2,885.6,568.9,885.4z"/>
	</g>
</g>
<g>
	<g id="Dbre3c.tif">
		<g>
			<path fill="#FED237" d="M337.1,928c0.9-0.2,1.3-1,1.9-1.6c4.4-4.4,8.8-8.7,13.1-13.1c1-1,2.2-1.7,3.7-1.3c1.4,0.5,1.8,1.6,2,3
				c1.5,9.9,3.3,19.6,4.6,29.5c1.2,9.1,3.1,18.1,4.6,27.2c0.9,5.1,1.5,10.3,2.6,15.3c0.6,2.9-1,3.9-2.9,5c-7.1,4-14.3,7.9-21.4,11.8
				c-6.1,3.4-12.2,6.7-18.2,10.1c-3.3,1.8-6.5,1.8-9.8,0c-13.7-7.6-27.4-15.3-41.1-22.9c-0.6-0.3-1.8-0.5-1.3-1.7
				c0.8-0.1,1.3-0.8,1.8-1.3c11.1-11.1,22.2-22.2,33.3-33.3c4.7-4.7,9.3-9.7,14.3-14.2C328.8,936.5,332.9,932.3,337.1,928z"/>
			<path fill="#FEB518" d="M337.1,928c-4.1,4.3-8.3,8.5-12.7,12.5c-4.9,4.5-9.5,9.4-14.3,14.2c-11.1,11.1-22.2,22.2-33.3,33.3
				c-0.5,0.5-1,1.2-1.8,1.3c2.5-15.9,5-31.7,7.5-47.6c2.4-15,4.7-30.1,7-45.1c0.4-2.9,0.9-5.7,1.4-8.6c0.2-1.4,1-2.4,2.4-2.7
				c1.5-0.3,2.5,0.4,3.2,1.7c2.9,5.6,6,11.1,8.9,16.7c1.7,3.5,3.8,6.9,5.8,10.3c0.7,1.2,0.6,2.7,2.1,3.7c1.7-3.3,3.5-6.5,5.2-9.8
				c0.4-0.7,0.8-1.5,1.2-2.2c1.7-2.9,4.1-3,5.7,0c2.3,4.3,4.6,8.6,6.9,12.9C333.8,921.8,335.4,924.9,337.1,928z"/>
		</g>
	</g>
	<polygon fill="#F79305" points="274.9,989.4 313.2,917.8 324.4,940.5 	"/>
</g>
<g id="pyI42I.tif">
	<g>
		<path fill="#70E0FB" d="M27.8,107.6c0.1-5.7,1-11.5,2.4-17.3c0.2-0.7,0-0.9-0.6-1.1c-5.3-1.5-10.5-3.5-15.3-6.1
			C10,80.7,6.1,78,3.1,74C-1.1,68.2-1,61.5,3.3,55.8c2.8-3.7,6.4-6.3,10.3-8.5c5.1-2.9,10.5-4.9,16-6.5c0.7-0.2,0.8-0.5,0.6-1.1
			c-1.1-4.8-2-9.6-2.3-14.6c-0.3-5,0-10,1.7-14.7c1.5-4,3.9-7.3,7.9-9.1c3.6-1.6,7.3-1.6,11.1-0.7c5.3,1.3,9.8,4,14.2,7.1
			c3.3,2.4,6.5,5,9.4,7.9c0.5,0.5,0.7,0.4,1.1,0c4.2-4,8.6-7.7,13.7-10.7c3.6-2.1,7.3-3.9,11.4-4.6c5.3-0.9,10.2,0.1,14,4.2
			c2.4,2.5,3.6,5.7,4.4,9c0.8,3.6,1,7.2,0.8,10.9c-0.3,5.2-1.1,10.3-2.4,15.3c-0.2,0.6-0.1,0.9,0.6,1c5,1.4,9.9,3.2,14.5,5.7
			c3.8,2,7.3,4.3,10.2,7.4c2.4,2.5,4.2,5.4,4.7,8.9c0.6,4.1-0.4,7.7-2.8,11c-2.6,3.7-6.2,6.4-10.1,8.6c-5.1,3-10.6,5.1-16.2,6.7
			c-1.2,0.3-1.2,0.3-0.9,1.5c1.1,4.7,1.9,9.4,2.2,14.2c0.3,4.9,0,9.7-1.5,14.4c-1.2,3.5-3.1,6.6-6.4,8.6c-3,1.9-6.3,2.5-9.8,2.1
			c-6-0.7-11.2-3.5-16.1-6.9c-3.7-2.5-7.2-5.5-10.4-8.6c-0.4-0.4-0.7-0.3-1.1,0c-3.7,3.5-7.6,6.8-11.8,9.5c-3.9,2.5-8,4.6-12.6,5.6
			c-4.5,0.9-8.8,0.5-12.6-2.2c-3.2-2.3-4.9-5.5-6-9.1C28.2,114.8,27.8,111.4,27.8,107.6z M73.7,88.6c3.2,0.1,7.3-0.1,11.4-0.4
			c0.7,0,1-0.3,1.4-0.8c4.6-6.8,8.7-14,12.4-21.3c0.4-0.8,0.4-1.5,0-2.3c-1.5-2.9-3-5.8-4.5-8.6c-2.5-4.4-5.1-8.7-7.9-12.9
			c-0.2-0.3-0.4-0.5-0.9-0.5c-3.7-0.3-7.4-0.4-11-0.5c-4.6-0.1-9.2,0.1-13.8,0.4c-1,0.1-1.5,0.4-2,1.2c-4.6,6.9-8.7,14-12.3,21.4
			c-0.2,0.5-0.3,0.9,0,1.4c1.5,3,3,6,4.7,9c2.5,4.4,5.2,8.8,8,13c0.2,0.3,0.4,0.5,0.9,0.5c0.9,0,1.7,0.1,2.6,0.2
			C65.9,88.6,69.4,88.6,73.7,88.6z M34,107.7c0,1.9,0.1,3.6,0.3,5.3c0.3,2.3,0.9,4.5,2,6.5c1.4,2.4,3.3,3.9,6.1,4.2
			c2.6,0.3,5-0.3,7.4-1.2c7.1-2.8,12.7-7.6,18.1-12.7c0.4-0.3,0.3-0.6,0-0.9c-4.2-4.5-8-9.3-11.6-14.3c-0.3-0.4-0.6-0.6-1.1-0.6
			c-1.6-0.1-3.2-0.3-4.8-0.5c-4.5-0.6-9.1-1.3-13.5-2.4c-0.4-0.1-0.6-0.1-0.7,0.4C35,96.9,34.1,102.4,34,107.7z M111.5,108
			c0-0.8-0.1-1.7-0.1-2.5c-0.2-4.7-1.1-9.3-2.1-13.8c-0.1-0.6-0.3-0.7-0.9-0.5c-5.7,1.3-11.4,2.2-17.3,2.7c-1,0.1-1.8,0.3-2.5,1.3
			c-3.3,4.7-6.9,9.1-10.8,13.4c-0.8,0.9-1,0.7,0.1,1.7c3,2.8,6.1,5.5,9.5,7.8c3.7,2.5,7.5,4.7,11.9,5.5c2.6,0.5,5.1,0.3,7.3-1.3
			c1.7-1.2,2.6-2.9,3.4-4.7C111.2,114.5,111.4,111.3,111.5,108z M31.9,46.6c-0.1,0-0.2,0.1-0.3,0.1c-5.5,1.6-10.8,3.6-15.8,6.5
			c-2.9,1.7-5.5,3.7-7.6,6.4C5.6,63,5.5,66.7,8.1,70.3c1.8,2.5,4.1,4.3,6.6,5.9c5.2,3.3,10.9,5.4,16.7,7.1c0.5,0.1,0.7,0.1,0.9-0.4
			c1.8-5.9,4-11.5,6.6-17.1c0.3-0.6,0.2-1.1,0-1.6c-1.6-3.4-3-6.9-4.3-10.5c-0.8-2.2-1.5-4.3-2.2-6.5C32.2,46.9,32.3,46.5,31.9,46.6
			z M34,22.2c0.1,1.4,0.2,3.1,0.3,4.8c0.3,3.9,1.1,7.7,2,11.4c0.1,0.5,0.3,0.5,0.7,0.4c2.2-0.5,4.3-0.9,6.5-1.3
			c3.9-0.7,7.9-1.2,11.8-1.6c0.5,0,0.7-0.2,1-0.6c3.6-5,7.4-9.8,11.6-14.3c0.4-0.5,0.3-0.7-0.1-1.1c-3.8-3.6-7.8-7-12.3-9.7
			c-3.2-1.9-6.5-3.5-10.3-4c-4.2-0.6-7.7,1.3-9.4,5.3C34.4,14.9,34.1,18.4,34,22.2z M139.3,65.1c0-1.8-0.5-3.2-1.4-4.6
			c-1.9-3-4.6-5.1-7.6-6.9c-5-3.1-10.4-5.1-16-6.8c-0.7-0.2-1-0.1-1.2,0.6c-1.7,5.6-3.9,11.1-6.3,16.5c-0.4,0.8-0.3,1.5,0,2.2
			c2.5,5.4,4.6,11,6.4,16.6c0.2,0.5,0.3,0.7,0.9,0.5c4.7-1.4,9.3-3.1,13.6-5.4c3.2-1.7,6.2-3.6,8.6-6.3
			C138,69.7,139.2,67.6,139.3,65.1z M111.5,21.7c0.1-0.7-0.1-1.6-0.1-2.5c-0.1-2.7-0.6-5.3-1.7-7.7c-1.5-3.5-4.3-5.3-8.1-5.3
			c-2.8,0-5.4,0.9-7.9,2.1c-6.1,2.9-11.3,7.2-16.1,11.8c-0.4,0.3-0.4,0.6,0,0.9c4.2,4.5,8,9.3,11.6,14.3c0.3,0.4,0.7,0.6,1.2,0.6
			c2.1,0.2,4.2,0.4,6.3,0.7c4,0.5,8,1.3,11.9,2.1c0.4,0.1,0.6,0,0.7-0.4C110.5,33,111.4,27.6,111.5,21.7z M51.4,42.7
			c-0.1,0-0.2-0.1-0.2-0.1c-4.2,0.6-8.3,1.2-12.4,2.1c-0.5,0.1-0.7,0.3-0.5,0.8c0.9,2.9,2,5.8,3.1,8.6c0.4,1.1,0.8,2.2,1.5,3.4
			C45.5,52.4,48.3,47.5,51.4,42.7z M94.2,87.1c0.3,0.2,0.6,0.1,0.8,0.1c4-0.5,7.9-1.2,11.8-2c0.6-0.1,0.5-0.4,0.4-0.8
			c-1-3.2-2.2-6.4-3.5-9.6c-0.3-0.8-0.5-1.6-1.1-2.4C100,77.5,97.2,82.3,94.2,87.1z M94,42.6c3.2,4.9,5.9,9.8,8.7,15
			c0.2-0.3,0.2-0.4,0.3-0.5c1.6-3.8,3-7.6,4.3-11.5c0.2-0.6-0.1-0.7-0.5-0.7C102.6,43.9,98.4,43.2,94,42.6z M51.4,87.2
			c-3.1-4.9-5.9-9.8-8.6-14.9c-0.1,0.3-0.2,0.4-0.3,0.6c-1.5,3.7-2.9,7.5-4.2,11.3c-0.2,0.7,0,0.9,0.6,1c2.6,0.5,5.3,1,7.9,1.5
			C48.2,86.9,49.7,87.3,51.4,87.2z M81.2,35.4c0-0.2,0-0.3-0.1-0.3c-2.5-3.3-5.1-6.5-7.9-9.5c-0.4-0.4-0.6-0.4-1,0
			c-1.9,2.1-3.7,4.2-5.5,6.4c-0.8,1-1.7,2.1-2.6,3.4C69.9,35.1,75.5,35.1,81.2,35.4z M64.3,94.6c0.1,0.2,0.1,0.4,0.2,0.4
			c2.5,3.3,5.1,6.4,7.9,9.4c0.4,0.4,0.6,0.3,0.9-0.1c2.1-2.3,4.1-4.7,6-7.1c0.7-0.8,1.4-1.6,2-2.7C75.5,94.9,69.9,94.9,64.3,94.6z"
			/>
		<path fill="#70E0FB" d="M85.7,65c0,7.2-5.8,13.1-13,13c-7.4-0.1-13-6.2-13-13.1c0.1-7.2,5.8-13,13.1-13C80,51.9,85.9,58,85.7,65z"
			/>
	</g>
</g>
<g>
	
		<text transform="matrix(1 0 0 1 89.2341 879.1608)" fill="#3F4854" font-family="'Lato-Regular'" font-size="11.4379" letter-spacing="1">FIREBASE</text>
</g>
<g>
	
		<text transform="matrix(1 0 0 1 -43.228 879.1608)" fill="#3F4854" font-family="'Lato-Regular'" font-size="11.4379" letter-spacing="1">REACT JS</text>
</g>
<g>
	
		<text transform="matrix(1 0 0 1 -175.6912 879.1608)" fill="#3F4854" font-family="'Lato-Regular'" font-size="11.4379" letter-spacing="1">REST API</text>
</g>
<g>
	
		<text transform="matrix(1 0 0 1 226.2222 879.1608)" fill="#3F4854" font-family="'Lato-Regular'" font-size="11.4379" letter-spacing="1">GITHUB</text>
</g>
<g>
	
		<text transform="matrix(1 0 0 1 341.6537 879.1608)" fill="#3F4854" font-family="'Lato-Regular'" font-size="11.4379" letter-spacing="1">ILLUSTRATOR</text>
</g>
<g id="_x34_Sr4SB.tif_2_">
	<g>
		<g>
			<path fill="#EC6431" d="M515.3,1112c38.3,0,76.4,0,114.9,0c-0.8,9.3-1.6,18.3-2.4,27.4c-2.3,25.9-4.6,51.8-6.9,77.7
				c-0.1,1.2-0.6,2.4-0.4,3.5c1.2,7.8-3.2,10-9.9,11.5c-11.8,2.7-23.4,6.4-35.1,9.5c-1.8,0.5-3.9,0.5-5.7,0
				c-13.8-3.7-27.6-7.7-41.5-11.4c-2.2-0.6-2.9-1.7-3.1-3.7c-1.8-21.3-3.7-42.7-5.6-64c-1.4-15.9-2.8-31.7-4.2-47.6
				C515.3,1114,515.3,1113.1,515.3,1112z M552.4,1150.3c2.7,0,4.6,0,6.5,0c15,0.1,30.1,0.3,45.1,0.4c1.8,0,3.9,0.4,4.1-2.3
				c0.3-4.1,0.7-8.2,1.1-12.3c-24.5,0-48.5,0-72.7,0c1.3,14.7,2.6,29,3.9,43.8c16.8,0,33.2,0,49.7,0c-0.5,5.9-0.9,11.3-1.6,16.6
				c-0.1,0.7-1,1.8-1.8,2c-8.2,2.4-16.4,5.4-25,1.2c-0.5-0.2-1-0.3-1.5-0.4c-2.7-0.3-4.1-1.5-4-4.5c0.1-2.7-0.5-5.4-0.9-8.3
				c-4.8,0-9.4,0-14.5,0c0.6,7.3,1.2,14.5,2,21.6c0.1,0.9,1.9,1.9,3.1,2.3c8.1,2.4,16.3,4.7,24.5,6.9c1.6,0.4,3.4,0.4,5,0
				c8.1-2.1,16.1-4.5,24.1-6.6c2.4-0.6,3.3-1.9,3.4-4.4c0.6-8.1,1.4-16.1,2.1-24.2c0.5-5.7,0.8-11.3,1.3-17.3c-18,0-35.3,0-52.8,0
				C553.2,1159.9,552.8,1155.4,552.4,1150.3z"/>
		</g>
	</g>
</g>
<path fill="none" stroke="#A8A8A8" stroke-miterlimit="10" d="M286.6-10.4"/>
</svg>
